<svg xmlns="http://www.w3.org/2000/svg" width="106.093" height="44.375" viewBox="0 0 106.093 44.375">
  <g id="Grupo_1" data-name="Grupo 1" transform="translate(-237.5 -4.606)">
    <path id="Trazado_2" data-name="Trazado 2" d="M267.869,48.481H238V5.106H343.093V48.481H268.46c.17-.032.341-.077.513-.093a2.677,2.677,0,0,0,1.949-.962,2.181,2.181,0,0,0,.209-.455,7.924,7.924,0,0,1-1.217.747,4.23,4.23,0,0,1-3.251-.126c-.9-.386-1.761-.9-2.632-1.38-.471-.26-.924-.562-1.387-.844a2.987,2.987,0,0,0,2.057-1.421,3.7,3.7,0,0,0,.363-2.773,2.976,2.976,0,0,0-1.221-1.8,2.553,2.553,0,0,0-3.191.185c-.019-.19-.031-.313-.046-.455-.128-.009-.236-.021-.343-.022-.462-.006-.462-.005-.462.547v6.734c0,.148.011.3.016.436h.821V44.888c.5.33.946.633,1.4.912a20.232,20.232,0,0,0,4.972,2.458C267.3,48.337,267.582,48.407,267.869,48.481Zm-21.814-28.8c0,7.992,5.455,14.449,12.229,14.479S270.559,27.7,270.561,19.7c0-7.973-5.491-14.46-12.248-14.467S246.055,11.712,246.055,19.681ZM322.5,47.007c2.413-.007,4.032-2.42,3.454-5.129a3.887,3.887,0,0,0-3.059-2.963c-2.328-.335-4.31,2.026-3.914,4.753A3.531,3.531,0,0,0,322.5,47.007Zm-80.432-9.231c-.617-.093-.617-.093-.617.539,0,1.418,0,2.838,0,4.256,0,.826,0,1.652-.034,2.475-.039.842-.506,1.308-1.213,1.281-.748-.028-1.166-.526-1.168-1.426-.006-2.231,0-4.462,0-6.694v-.45h-.969v1.458c0,1.91-.012,3.819.014,5.728a2.053,2.053,0,0,0,.957,1.923c1.533.846,3.03-.255,3.033-2.23q0-3.212,0-6.424C242.072,38.073,242.072,37.933,242.072,37.776Zm32.469,9.133c.728,0,1.419.036,2.1-.012a4.661,4.661,0,0,0,1.38-.292,4,4,0,0,0,2.286-4.281,3.411,3.411,0,0,0-3.155-3.284c-.74-.039-1.487.04-2.229.032-.308,0-.414.087-.413.472.015,2.285.008,4.57.008,6.855C274.522,46.525,274.531,46.65,274.541,46.909ZM296.7,46.8c.639.034,1.227.07,1.816.1a3.775,3.775,0,0,0,1.888-.385,4.14,4.14,0,0,0,2.035-4.393,3.4,3.4,0,0,0-3.1-3.079c-.751-.039-1.506.04-2.259.027-.324-.005-.4.127-.4.49.012,2.269.006,4.538.008,6.807C296.685,46.5,296.7,46.643,296.7,46.8Zm-10.432.079c.567,0,1.092.027,1.613-.007a6.769,6.769,0,0,0,1.743-.225c1.692-.579,2.6-2.332,2.386-4.445a3.408,3.408,0,0,0-3.171-3.165c-.728-.039-1.463.043-2.2.032-.317,0-.407.111-.4.482.013,2.283.006,4.567.007,6.85C286.25,46.527,286.259,46.653,286.269,46.88Zm31.639-1.429-.213.218a2.966,2.966,0,0,1-4.5-.426,6.006,6.006,0,0,1-1.042-4.327,2.983,2.983,0,0,1,1.464-2.487,2.921,2.921,0,0,1,2.92.044A1.962,1.962,0,0,1,317.59,40c.011.072.1.129.152.193.047-.079.134-.158.137-.241.015-.373-.006-.749.012-1.122a.483.483,0,0,0-.243-.483,3.959,3.959,0,0,0-6.263,2.265,5.158,5.158,0,0,0,.808,4.965,3.824,3.824,0,0,0,4.356,1.281,3.417,3.417,0,0,0,1.626-1.046C318.073,45.674,318,45.571,317.908,45.451ZM297.23,22.984a2.3,2.3,0,0,0,2.265-2.562,2.311,2.311,0,0,0-2.28-2.6,2.34,2.34,0,0,0-2.272,2.581A2.293,2.293,0,0,0,297.23,22.984Zm39.85,16.794.1.032v5.753c0,.336,0,.671,0,1.006,0,.189.052.273.226.283.444.026.464.016.464-.51,0-2.168,0-4.335,0-6.5,0-.848.074-.714-.633-.745-.27-.012-.407.081-.5.4-.287.973-.607,1.932-.916,2.9-.04.122-.092.238-.171.442-.08-.271-.133-.437-.178-.608-.259-.943-.513-1.889-.778-2.83-.029-.106-.113-.265-.181-.27-.321-.029-.643-.013-.962-.013v7.717h.42V39.768l.09-.018c.474,1.584.95,3.168,1.449,4.838C336.058,42.919,336.569,41.349,337.08,39.778ZM243.1,39.151v7.673h.425v-5.65a1.606,1.606,0,0,1,.348.509c.811,1.652,1.627,3.3,2.428,4.958.146.3.309.411.591.263V39.14h-.423v5.7a.655.655,0,0,1-.236-.282c-.845-1.7-1.695-3.4-2.527-5.115C243.561,39.145,243.4,39.025,243.1,39.151Zm80.2-16.252a16.312,16.312,0,0,0,1.8-.012,2.183,2.183,0,0,0,1.789-2.2c.062-1.464-.48-2.448-1.582-2.7a8.717,8.717,0,0,0-1.627-.069c-.314-.009-.417.151-.409.536.022,1.3.009,2.6.009,3.9C323.275,22.5,323.283,22.642,323.294,22.9Zm8.067,0a17.587,17.587,0,0,0,1.827-.012,2.138,2.138,0,0,0,1.754-1.86,2.651,2.651,0,0,0-.981-2.8,3.632,3.632,0,0,0-2.6-.235v.474C331.361,19.9,331.361,21.33,331.361,22.9ZM268,44.742c-.022-.023.011.042.054.05a.741.741,0,0,0,.789-.241.936.936,0,0,0,.148-.865,1.238,1.238,0,0,0-.871-.906,1.485,1.485,0,0,0-1.861.793,2.48,2.48,0,0,0,.18,2.492,2.446,2.446,0,0,0,2.588.89,2.329,2.329,0,0,0,1.439-.853,2.482,2.482,0,0,0-.042-3.3,16.719,16.719,0,0,0-1.71-1.354,4.767,4.767,0,0,1-.685-.594.912.912,0,0,1,.055-1.307c.6-.47,1.325-.121,1.466.7a.676.676,0,0,0,.033.188.847.847,0,0,0,.138.162c.034-.056.1-.112.1-.169.009-.4.005-.792.005-1.156l-.56-.241a1.314,1.314,0,0,0-1.715.607,1.7,1.7,0,0,0,.2,2.037,8.261,8.261,0,0,0,1.072.945c.342.276.719.495,1.05.788a1.772,1.772,0,0,1-.048,2.658,2.142,2.142,0,0,1-2.663-.049,2.168,2.168,0,0,1-.5-.6,1.848,1.848,0,0,1,.039-1.784,1.237,1.237,0,0,1,1.455-.37.515.515,0,0,1,.328.653A4.248,4.248,0,0,1,268,44.742ZM281.688,20.4l1.194,2.627.906-.606c-.274-.537-.526-1.026-.772-1.509.539-.5.675-.712.728-1.107a1.393,1.393,0,0,0-.993-1.713,12.911,12.911,0,0,0-1.922-.109c-.257-.015-.337.1-.334.4.012,1.38.005,2.76.006,4.139,0,.114.012.226.022.382l1.059-.1V19.064c.626-.117,1,.074,1.056.512S282.408,20.277,281.688,20.4Zm32.9.077A3.9,3.9,0,0,0,315,19.6a1.236,1.236,0,0,0-.949-1.52c-.524-.09-1.064-.052-1.6-.094-.3-.024-.416.085-.41.47.019,1.314.007,2.628.008,3.943,0,.135.015.271.025.423.615,0,1.193.044,1.765-.014a1.124,1.124,0,0,0,1.12-.886A1.311,1.311,0,0,0,314.586,20.475ZM302.6,20.383l-2.333-2.5v5.033l.971-.109V20.451c.8.85,1.542,1.647,2.33,2.488v-5L302.6,18ZM292.41,22.809V21.6a6.547,6.547,0,0,0,1.258-.262,1.606,1.606,0,0,0,.91-1.552,1.584,1.584,0,0,0-.767-1.6,4.11,4.11,0,0,0-2.461-.156v4.887C291.7,22.876,292.026,22.845,292.41,22.809Zm-36.7,16.332c-.019.045-.037.067-.037.09,0,2.465-.01,4.93,0,7.4a.329.329,0,0,0,.21.235q1.28.024,2.56,0c.072,0,.2-.154.2-.244.022-.411.016-.825,0-1.238,0-.079-.074-.155-.113-.233-.055.078-.145.145-.161.233-.14.762-.3.952-.941,1.052-.205.031-.415.014-.621.039-.264.031-.333-.1-.33-.4.011-1.2,0-2.4.006-3.6,0-.112.016-.223.028-.374h1.061v-.534h-1.089c0-.643-.005-1.235.005-1.826,0-.073.1-.209.136-.2a7.009,7.009,0,0,1,1.318.2c.333.1.4.506.431.883.006.062.092.114.14.17.045-.059.124-.115.126-.175.01-.485.005-.971.005-1.466ZM304.487,21.4a9.094,9.094,0,0,0,.01.964.588.588,0,0,0,.233.384,2.078,2.078,0,0,0,1.5.209,1.5,1.5,0,0,0,1.155-1.542,1.36,1.36,0,0,0-1.067-1.543,5.27,5.27,0,0,1-.508-.148c-.191-.08-.409-.225-.313-.49a.628.628,0,0,1,.44-.342.828.828,0,0,1,.509.2,2.507,2.507,0,0,1,.373.4c.178-.314.343-.608.5-.892a1.642,1.642,0,0,0-2.542-.283,1.5,1.5,0,0,0,.459,2.417c.208.075.427.109.637.179a.483.483,0,0,1,.382.538.476.476,0,0,1-.455.466.816.816,0,0,1-.419-.042C305.1,21.746,304.82,21.579,304.487,21.4Zm-16.738.01c0,.336-.02.657.011.969.013.132.119.335.21.358a4.984,4.984,0,0,0,1.311.235,1.436,1.436,0,0,0,1.356-1.471,1.416,1.416,0,0,0-1.156-1.659,1.51,1.51,0,0,1-.527-.188.557.557,0,0,1-.2-.419c.019-.133.2-.34.294-.332a1.783,1.783,0,0,1,.7.231c.115.062.187.234.3.388.2-.346.362-.64.524-.927a1.637,1.637,0,0,0-2.554-.27,1.51,1.51,0,0,0,.458,2.4c.208.078.426.112.636.179a.481.481,0,0,1,.394.528.474.474,0,0,1-.472.482.849.849,0,0,1-.418-.05C288.341,21.747,288.079,21.589,287.749,21.412Zm15.832,17.729a.959.959,0,0,0-.034.166q0,3.641-.005,7.28c0,.226.086.288.259.288q1.23-.008,2.461,0c.191,0,.278-.071.27-.312-.011-.374.006-.749-.008-1.123a.934.934,0,0,0-.127-.293,1.176,1.176,0,0,0-.13.267c-.134.7-.307.914-.91,1.006-.237.036-.48.027-.718.045-.2.015-.271-.088-.271-.32,0-1.239.006-2.478,0-3.717,0-.253.077-.346.289-.333.266.015.534,0,.8,0v-.527c-.293,0-.564,0-.835,0-.18,0-.256-.084-.253-.3.007-.491-.006-.981.009-1.471,0-.1.1-.277.148-.273a6.552,6.552,0,0,1,1.318.2c.335.105.385.52.438.885.009.062.088.109.134.163.036-.052.1-.1.1-.158.009-.486,0-.973,0-1.482ZM250.268,39.1c.039.189.061.325.1.457q.9,3.534,1.808,7.067c.06.235.106.419.38.411s.286-.214.337-.422q.874-3.464,1.748-6.926c.046-.179.077-.362.115-.538-.355-.147-.5,0-.591.376-.441,1.834-.9,3.662-1.362,5.49-.031.125-.07.249-.1.373a1.677,1.677,0,0,1-.2-.517c-.431-1.811-.86-3.622-1.3-5.43-.032-.129-.143-.3-.24-.326A3.091,3.091,0,0,0,250.268,39.1Zm25.39-29.42c-.315-.133-.411-.013-.411.346q.009,10.473.006,20.945c0,.113.013.227.022.348h.383Zm62.921,37.106c.307.134.439.025.517-.317.177-.783.392-1.555.586-2.334.274-1.093.273-1.081,1.236-1.086.261,0,.361.114.421.4.224,1.036.464,2.067.707,3.1.025.107.1.27.168.28a5.3,5.3,0,0,0,.723.013.849.849,0,0,0,.006-.144q-.954-3.759-1.919-7.514c-.027-.1-.149-.174-.227-.259-.079.1-.2.189-.232.309-.429,1.6-.844,3.2-1.263,4.8Q338.942,45.406,338.579,46.789Zm-57.586-.006c.325.146.443,0,.514-.3.188-.794.4-1.582.6-2.372.269-1.062.269-1.051,1.219-1.056.255,0,.364.1.427.387.221,1.037.468,2.066.7,3.1.05.227.131.326.336.3s.384,0,.6,0c-.031-.154-.045-.253-.07-.35q-.92-3.609-1.845-7.217a1.315,1.315,0,0,0-.236-.355c-.09.12-.225.223-.262.363-.485,1.806-.956,3.616-1.43,5.426C281.354,45.4,281.176,46.084,280.993,46.783Zm42.018-30.31a1.894,1.894,0,0,0,1.881-2.1,1.866,1.866,0,1,0-3.7-.026A1.89,1.89,0,0,0,323.011,16.473ZM287.1,18.992a4.054,4.054,0,0,1-.064-.5c-.006-.376-.148-.5-.47-.483-.577.032-1.158.02-1.736,0-.26-.007-.369.069-.366.405.015,1.34.005,2.681.008,4.021,0,.122.019.243.031.379.814,0,1.589,0,2.363,0,.071,0,.189-.061.2-.124.071-.262.112-.537.174-.861-.519,0-.987.01-1.454-.009-.093,0-.252-.1-.259-.176a7.717,7.717,0,0,1-.012-.852c.373,0,.689.012,1.005-.009a.293.293,0,0,0,.219-.179,7.3,7.3,0,0,0,.01-.79h-.733c-.529,0-.529,0-.5-.609a1.608,1.608,0,0,1,.047-.219C286.068,18.992,286.565,18.992,287.1,18.992Zm43.967,3.488c-.732-1.578-1.448-3.122-2.19-4.724-.711,1.61-1.4,3.167-2.1,4.743.115.057.191.1.272.134.214.089.43.172.631.25.15-.262.244-.6.433-.711.213-.122.512-.035.774-.038a1.357,1.357,0,0,0,.23,0,.756.756,0,0,1,.984.682c0,.021.029.035.064.073Zm-19.318,0c-.738-1.588-1.451-3.123-2.194-4.724-.723,1.638-1.407,3.183-2.1,4.761l.961.377a2.413,2.413,0,0,0,.133-.32c.082-.356.267-.49.579-.447a2.4,2.4,0,0,0,.687,0,.764.764,0,0,1,.986.682c0,.021.031.034.069.074C311.136,22.761,311.417,22.633,311.75,22.482Zm1.586-6.562c-.439-.076-.439-.076-.439-.6,0-.8,0-1.6,0-2.4,0-.1.016-.2.025-.305a.959.959,0,0,1,.251.348c.528,1.07,1.047,2.145,1.591,3.2.065.128.253.167.386.247a1.464,1.464,0,0,0,.122-.39c.009-1.225,0-2.45.007-3.675,0-.165.014-.329.021-.5l.477-.07c-.006-.14-.01-.252-.016-.41-.427,0-.841-.009-1.252.009-.057,0-.152.142-.153.219s.1.21.156.206c.264-.021.3.136.3.4-.01.8,0,1.6-.005,2.4,0,.089-.022.178-.048.377-.122-.241-.194-.381-.265-.523-.455-.925-.907-1.853-1.368-2.773-.062-.123-.167-.285-.262-.3a7.361,7.361,0,0,0-.933-.014c.009.176.014.3.02.422l.444.056v3.373c0,.588,0,.588-.465.724.007.115.015.235.024.356h1.379C313.336,16.166,313.336,16.053,313.336,15.92ZM286.579,29.64a2.456,2.456,0,0,0,2.264-2.675,2.3,2.3,0,1,0-4.532-.038A2.469,2.469,0,0,0,286.579,29.64Zm11.984-5.275c-.558,0-1.1.008-1.644,0-.321-.007-.336.176-.252.457l.45.042c-.023.112-.033.2-.058.283-.356,1.2-.72,2.405-1.07,3.611-.062.211-.14.326-.344.323-.05,0-.144.149-.141.228s.094.222.152.224c.421.02.842.011,1.29.011-.009-.2-.016-.328-.022-.458l-.505-.049c.107-.394.2-.762.312-1.116a.286.286,0,0,1,.234-.134c.371-.014.744-.014,1.115,0,.084,0,.218.055.241.125.118.355.206.723.314,1.118l-.476.065v.425h1.452v-.452c-.322.076-.415-.139-.493-.425-.311-1.127-.639-2.248-.959-3.371-.037-.127-.065-.257-.1-.412l.507-.039ZM329.9,46.845c0-.572,0-1.086-.005-1.6,0-.07-.064-.139-.1-.207a.808.808,0,0,0-.153.193,1.055,1.055,0,0,0-.043.264.856.856,0,0,1-.675.825,2.96,2.96,0,0,1-.487.069c-.492.027-.492.022-.492-.544,0-2.1-.007-4.2.008-6.305,0-.367-.1-.459-.395-.45-.273.008-.445.021-.44.444.019,1.56.007,3.12.007,4.679,0,.761,0,1.521,0,2.282,0,.166-.017.35.2.349C328.17,46.843,329.009,46.845,329.9,46.845ZM309.338,16.414a2.332,2.332,0,0,0,2.172-2.568,2.219,2.219,0,1,0-4.366.019A2.339,2.339,0,0,0,309.338,16.414ZM282.9,24.632a3.654,3.654,0,0,0-.74-.35,1.329,1.329,0,0,0-1.543,1.736,1.345,1.345,0,0,0,.963.948c.351.143.719.227,1.065.38a.8.8,0,0,1,.48.866.879.879,0,0,1-.577.8.919.919,0,0,1-.99-.237,8.387,8.387,0,0,1-.532-.806.574.574,0,0,0-.346-.175c-.047-.01-.163.107-.165.169-.013.5-.007,1-.007,1.508h.443c.022-.153.04-.273.065-.439.088.08.144.139.205.185a1.491,1.491,0,0,0,1.827.173,1.43,1.43,0,0,0,.642-1.221,1.336,1.336,0,0,0-.6-1.275,3.8,3.8,0,0,0-.7-.327c-.3-.115-.611-.193-.91-.314a.672.672,0,0,1-.42-.74.7.7,0,0,1,.542-.68,1.05,1.05,0,0,1,1.283.714c.112.277.244.324.475.2,0-.326.015-.649-.007-.968a1.52,1.52,0,0,0-.143-.4Zm45.324-8.169V12.43h-.812v1.913l-1.882-2.011v4.031c.784.087.788.081.77-.782-.007-.362,0-.724,0-1.191.374.4.671.723.967,1.042Zm-44.055-.15c.671,0,1.327.042,1.976-.01a2.115,2.115,0,0,0,1.934-2.227c.062-1.481-.52-2.443-1.708-2.645a11.946,11.946,0,0,0-2.03-.055c-.063,0-.156.139-.178.231-.012.046.108.2.162.195.284-.022.286.179.286.418-.005,1.006,0,2.012,0,3.018,0,.564,0,.564-.439.7C284.165,16.053,284.165,16.165,284.165,16.313Zm-.859-1.326c0,.229.011.448-.005.663-.006.082-.076.222-.117.224-.552.015-1.1.009-1.676.009V13.975c.407,0,.766,0,1.124,0s.386-.037.272-.5c-.372,0-.754.012-1.135-.009-.088-.006-.244-.119-.247-.19-.022-.471-.012-.945-.012-1.457H282.7c.583,0,.583,0,.614.671,0,.049.014.1.024.161h.43c0-.312-.015-.607,0-.9.021-.316-.1-.4-.343-.391-.842.013-1.684,0-2.527.011-.146,0-.387-.13-.393.226-.006.334.234.175.364.237.019.009.037.024.094.061v.391c0,1.008-.009,2.014,0,3.022.005.37.005.685-.424.594-.092.318-.029.455.255.45.711-.012,1.423,0,2.134,0,.847,0,.835,0,.839-1C283.773,14.95,283.645,14.86,283.306,14.987ZM292.68,24.7c.016.012-.048-.033-.109-.08a1.928,1.928,0,0,0-2.511.208,3.279,3.279,0,0,0-.52,3.435,2.1,2.1,0,0,0,2.568,1.28,1.836,1.836,0,0,0,1.231-1.6c-.278-.1-.449-.017-.6.313a1.313,1.313,0,0,1-1.577.769c-1.235-.311-1.752-2.22-.966-3.493a1.433,1.433,0,0,1,2.566.179c.047.135.262.189.4.28l.087-.1c0-.371.006-.741,0-1.112,0-.162.068-.419-.178-.395C292.958,24.4,292.855,24.55,292.68,24.7ZM320.6,21.834c-.455,0-.848-.015-1.238.006-.258.014-.345-.094-.34-.4.012-.877,0-1.754,0-2.629s0-.854-.748-.84c-.3.007-.361.135-.358.459.013,1.327.006,2.655.006,3.983,0,.126.012.251.021.407.789,0,1.552,0,2.313-.008.061,0,.153-.1.174-.169C320.5,22.4,320.536,22.151,320.6,21.834Zm-22.139-9.987c-.043.165-.074.3-.112.432-.308,1.033-.621,2.065-.92,3.1-.089.308-.167.593-.519.527v.414c.4,0,.8.008,1.187-.009.062,0,.121-.129.182-.2-.064-.078-.117-.182-.2-.226a.964.964,0,0,0-.322-.045c.109-.385.194-.728.307-1.059a.3.3,0,0,1,.224-.161c.371-.016.744-.017,1.115,0a.3.3,0,0,1,.218.172c.112.331.2.675.3,1.044l-.454.07V16.3h1.417c-.006-.147-.01-.268-.016-.416-.34.076-.442-.147-.516-.451-.106-.433-.241-.856-.363-1.283-.215-.755-.43-1.509-.651-2.287a1.826,1.826,0,0,1,.224-.044c.141-.008.325.022.275-.236a.35.35,0,0,0-.27-.209c-.447-.022-.9,0-1.344-.012-.311-.007-.309.174-.222.435C298.158,11.812,298.3,11.829,298.458,11.847Zm-9.969-.017c.432-.1.477.158.466.543-.022.8-.013,1.6,0,2.4.012,1.107.5,1.662,1.43,1.661s1.427-.565,1.437-1.655c.007-.722,0-1.445,0-2.167v-.761l.456-.065c-.006-.139-.01-.259-.016-.388h-1.414c.009.155.016.274.024.39l.443.071c0,.406.006.79,0,1.174-.012.695,0,1.394-.056,2.084-.048.548-.319.767-.787.781-.7.023-.991-.294-1.009-1.155-.016-.76,0-1.522,0-2.282,0-.563,0-.563.459-.693-.007-.116-.013-.236-.02-.359h-1.406Zm43.72,35a1.266,1.266,0,0,0,.038-.224q0-3.614,0-7.228c0-.083-.029-.236-.056-.239a2.512,2.512,0,0,0-.676-.01c-.045.008-.088.261-.088.4q-.009,3.441,0,6.881c0,.136.012.273.019.42Zm-59.145,0a.543.543,0,0,0,.039-.108q.006-3.693.007-7.387c0-.071-.032-.2-.056-.2a2.647,2.647,0,0,0-.677-.006c-.046.008-.089.26-.089.4q-.009,3.442,0,6.884c0,.136.011.273.017.419Zm-23.937-.01c.007-.133.018-.246.018-.359,0-2.321-.009-4.641.009-6.962,0-.408-.151-.424-.413-.426s-.436.019-.431.443c.019,2.308.009,4.615.01,6.924,0,.124.012.247.018.38Zm47.392-33.911V11.343h-.373c-.023.136-.043.251-.068.392a1.812,1.812,0,0,0-2.225-.222,2.893,2.893,0,0,0-1.008,3.33,2.053,2.053,0,0,0,2.571,1.5,1.7,1.7,0,0,0,1.188-1.524c-.253-.088-.414-.009-.546.292a1.192,1.192,0,0,1-1.131.772,1.456,1.456,0,0,1-1.479-1.042,2.6,2.6,0,0,1,.187-2.413,1.366,1.366,0,0,1,2.452.227C296.121,12.768,296.341,12.808,296.519,12.908Zm8.3,1.959c-.02-.046-.041-.091-.06-.137-.167.082-.415.108-.486.254a1.336,1.336,0,0,1-1.445.885,1.559,1.559,0,0,1-1.322-1.256,2.781,2.781,0,0,1,.007-1.631,1.524,1.524,0,0,1,1.357-1.2,1.246,1.246,0,0,1,1.373.873c.051.121.257.15.429.243V11.344h-.334c-.04.13-.074.245-.081.272a5.506,5.506,0,0,0-1.178-.358,1.9,1.9,0,0,0-1.962,1.364,3.024,3.024,0,0,0,.25,2.915,1.882,1.882,0,0,0,2.223.8A1.8,1.8,0,0,0,304.824,14.867Zm16-1.394c.081-1.191.141-1.171-.886-1.181-.011,0-.022,0-.033,0a1.571,1.571,0,0,0-1.427,1.26,2.489,2.489,0,0,0,.367,2.342,1.555,1.555,0,0,0,1.824.454.4.4,0,0,0,.21-.277c.029-.288.01-.581.01-.884-.7.375-1.1.346-1.411-.092a1.343,1.343,0,0,1-.034-1.4C319.724,13.232,320.145,13.159,320.827,13.473Zm-3.942,4.517c-.3,0-.564.009-.825,0-.209-.009-.252.113-.252.333.006,1.458,0,2.916,0,4.374a1.6,1.6,0,0,0,.034.22l1.038-.092Zm5.356,2.45V18.817c0-.863,0-.847-.723-.839-.287,0-.376.112-.371.448.014,1.2-.005,2.395.009,3.592.011,1-.19.912.789.841.258-.019.3-.15.3-.411C322.235,21.779,322.241,21.109,322.241,20.44Zm-19.9,7.618c0,.257-.007.475,0,.691.01.233-.071.324-.268.315a6.7,6.7,0,0,0-.885,0c-.281.024-.383-.074-.377-.426.018-1.135.006-2.271.007-3.407,0-.125.012-.248.019-.374.1-.011.165-.019.23-.024.133-.011.3.054.3-.221s-.177-.247-.324-.249c-.317-.006-.635.009-.951,0s-.343.166-.259.457l.39.037c.019.038.04.06.04.082.005,1.3.013,2.606.005,3.909,0,.072-.122.163-.2.209a.68.68,0,0,1-.25.04V29.5c.954,0,1.892,0,2.829-.008.048,0,.138-.1.14-.159.011-.421.006-.841.006-1.275ZM293.883,24.8l.394.062c.018.04.037.063.037.085.006,1.29.013,2.579.005,3.868a.344.344,0,0,1-.215.234c-.14.031-.257.029-.255.252,0,.257.149.242.294.242.295,0,.591-.016.885,0,.31.021.395-.12.293-.448-.46-.081-.46-.081-.46-.629v-3.6l.477-.068c.022-.428.022-.431-.289-.437s-.613.006-.917,0C293.893,24.356,293.808,24.475,293.883,24.8ZM306.7,11.363c-.383,0-.751.011-1.119,0-.284-.012-.342.133-.243.471.486-.191.4.221.4.545q0,1.43,0,2.86c0,.569,0,.569-.432.707V16.3H306.7v-.41c-.45.1-.449-.225-.443-.593.013-.851,0-1.7,0-2.551v-.892l.438-.066C306.7,11.657,306.7,11.537,306.7,11.363Zm2.292-.6.072.072c.445-.192.593-.729.864-1.146-.168.007-.361.017-.44.135A9.087,9.087,0,0,0,308.995,10.763Z" stroke="#fff" stroke-miterlimit="10" stroke-width="1"/>
    <path id="Trazado_3" data-name="Trazado 3" d="M267.869,48.481c-.286-.074-.573-.144-.857-.224A20.162,20.162,0,0,1,262.04,45.8c-.453-.278-.9-.583-1.4-.912V46.8h-.821c-.006-.139-.016-.288-.016-.436q0-3.367,0-6.735c0-.55,0-.551.462-.546.107,0,.215.013.343.022.015.143.027.265.046.455a2.554,2.554,0,0,1,3.191-.185,2.976,2.976,0,0,1,1.221,1.8,3.7,3.7,0,0,1-.363,2.773,2.987,2.987,0,0,1-2.057,1.421c.463.282.916.584,1.387.844.871.478,1.732.994,2.632,1.38a4.234,4.234,0,0,0,3.251.125,7.91,7.91,0,0,0,1.217-.746,2.288,2.288,0,0,1-.209.455,2.677,2.677,0,0,1-1.949.962c-.172.015-.343.061-.514.093Zm-7-4.34a10.577,10.577,0,0,0,1.18.58,1.82,1.82,0,0,0,2.3-1.631,3.356,3.356,0,0,0-1.184-3.3,1.8,1.8,0,0,0-2.332.159.608.608,0,0,0-.188.368c-.011,1.315-.005,2.63,0,3.945,0,.031.031.06.053.1C260.756,44.276,260.817,44.2,260.865,44.141Z" stroke="#fff" stroke-miterlimit="10" stroke-width="1"/>
    <path id="Trazado_4" data-name="Trazado 4" d="M246.055,19.681c0-7.969,5.505-14.456,12.26-14.45s12.247,6.494,12.247,14.467c0,8-5.512,14.492-12.277,14.463S246.055,27.672,246.055,19.681Zm.452.015c-.067,7.448,5.154,13.861,11.675,13.944s11.934-6.194,11.939-13.914c0-7.684-5.291-13.952-11.8-13.963S246.507,12.008,246.507,19.7Z" stroke="#fff" stroke-miterlimit="10" stroke-width="1"/>
    <path id="Trazado_5" data-name="Trazado 5" d="M322.5,47.007a3.532,3.532,0,0,1-3.519-3.339c-.4-2.727,1.584-5.088,3.914-4.753a3.887,3.887,0,0,1,3.059,2.963C326.536,44.587,324.915,47,322.5,47.007Zm-2.737-4.562c0,2.212,1.4,3.881,3.184,3.8a2.469,2.469,0,0,0,2.307-2.412,4.251,4.251,0,0,0-1.9-3.928C321.521,38.878,319.761,40.122,319.767,42.445Z" stroke="#fff" stroke-miterlimit="10" stroke-width="1"/>
    <path id="Trazado_6" data-name="Trazado 6" d="M242.072,37.776v.436q0,3.213,0,6.424c0,1.975-1.5,3.076-3.034,2.23a2.054,2.054,0,0,1-.957-1.923c-.025-1.909-.012-3.818-.013-5.728V37.757h.969v.45c0,2.232,0,4.464,0,6.694,0,.9.421,1.4,1.167,1.426.707.028,1.174-.439,1.214-1.281.038-.823.031-1.649.034-2.475,0-1.418,0-2.838,0-4.256C241.455,37.683,241.455,37.683,242.072,37.776Z" stroke="#fff" stroke-miterlimit="10" stroke-width="1"/>
    <path id="Trazado_7" data-name="Trazado 7" d="M274.541,46.909c-.01-.259-.019-.384-.019-.511,0-2.285.008-4.57-.007-6.855,0-.385.1-.477.412-.473.744.01,1.489-.069,2.23-.031a3.41,3.41,0,0,1,3.154,3.284,4,4,0,0,1-2.285,4.281,4.628,4.628,0,0,1-1.38.291C275.96,46.945,275.27,46.909,274.541,46.909Zm.768-3.922c0,.942-.008,1.884.007,2.826,0,.135.085.361.168.387a2.931,2.931,0,0,0,2.645-.153,3.824,3.824,0,0,0,1.2-4.358,2.71,2.71,0,0,0-3.845-1.881c-.083.032-.162.256-.164.392C275.3,41.129,275.307,42.058,275.309,42.987Z" stroke="#fff" stroke-miterlimit="10" stroke-width="1"/>
    <path id="Trazado_8" data-name="Trazado 8" d="M296.7,46.8c-.006-.158-.016-.3-.016-.435,0-2.269.006-4.538-.007-6.807,0-.363.075-.495.4-.49.752.013,1.508-.066,2.259-.027a3.405,3.405,0,0,1,3.1,3.079,4.137,4.137,0,0,1-2.036,4.393,3.774,3.774,0,0,1-1.887.385C297.928,46.871,297.34,46.836,296.7,46.8Zm2.146-.335a2.666,2.666,0,0,0,1.456-.432,3.756,3.756,0,0,0,1.271-3.968c-.465-2.031-2.016-3.014-3.941-2.265a.417.417,0,0,0-.163.315q-.015,2.885,0,5.769a.448.448,0,0,0,.218.339C298.069,46.333,298.46,46.39,298.847,46.466Z" stroke="#fff" stroke-miterlimit="10" stroke-width="1"/>
    <path id="Trazado_9" data-name="Trazado 9" d="M286.269,46.88c-.01-.227-.019-.352-.019-.478,0-2.283.006-4.567-.007-6.85,0-.371.088-.486.4-.482.732.011,1.465-.071,2.195-.032a3.411,3.411,0,0,1,3.171,3.165c.216,2.112-.694,3.866-2.386,4.445a6.775,6.775,0,0,1-1.743.225C287.361,46.907,286.836,46.88,286.269,46.88Zm2.146-.414a2.543,2.543,0,0,0,2.116-1.06,4.281,4.281,0,0,0,.2-4.429,2.642,2.642,0,0,0-3.5-1.185.434.434,0,0,0-.2.323q-.018,2.883,0,5.768a.458.458,0,0,0,.22.342C287.637,46.333,288.029,46.39,288.415,46.466Z" stroke="#fff" stroke-miterlimit="10" stroke-width="1"/>
    <path id="Trazado_10" data-name="Trazado 10" d="M317.908,45.451l.264.357a3.4,3.4,0,0,1-1.626,1.046,3.827,3.827,0,0,1-4.356-1.281,5.158,5.158,0,0,1-.808-4.965,3.959,3.959,0,0,1,6.263-2.265.483.483,0,0,1,.243.483c-.018.373,0,.748-.012,1.122,0,.083-.09.16-.137.241-.053-.064-.141-.121-.152-.193a1.957,1.957,0,0,0-1.055-1.523,2.923,2.923,0,0,0-2.921-.044,2.98,2.98,0,0,0-1.463,2.487,6,6,0,0,0,1.041,4.327,2.966,2.966,0,0,0,4.5.426C317.76,45.6,317.824,45.537,317.908,45.451Z" stroke="#fff" stroke-miterlimit="10" stroke-width="1"/>
    <path id="Trazado_11" data-name="Trazado 11" d="M297.23,22.984a2.293,2.293,0,0,1-2.286-2.575,2.34,2.34,0,0,1,2.273-2.581,2.311,2.311,0,0,1,2.279,2.6A2.3,2.3,0,0,1,297.23,22.984Zm-.019-1.209c.668,0,1.1-.529,1.1-1.352s-.449-1.387-1.091-1.383a1.242,1.242,0,0,0-1.118,1.371C296.117,21.239,296.55,21.774,297.211,21.775Z" stroke="#fff" stroke-miterlimit="10" stroke-width="1"/>
    <path id="Trazado_12" data-name="Trazado 12" d="M337.08,39.778c-.511,1.571-1.022,3.141-1.564,4.812-.5-1.671-.974-3.255-1.449-4.839l-.089.018v7.057h-.42V39.109c.318,0,.64-.016.961.013.067,0,.151.164.182.27.265.941.518,1.886.777,2.83.047.171.1.338.178.608.08-.2.131-.32.171-.442.309-.964.629-1.923.916-2.9.093-.316.23-.408.5-.4.707.03.632-.1.634.744q0,3.252,0,6.5c0,.526-.019.536-.464.51-.175-.01-.228-.094-.225-.282,0-.336,0-.671,0-1.007V39.811Z" stroke="#fff" stroke-miterlimit="10" stroke-width="1"/>
    <path id="Trazado_13" data-name="Trazado 13" d="M243.1,39.151c.306-.126.462-.006.606.29.832,1.712,1.682,3.412,2.527,5.115a.658.658,0,0,0,.236.282v-5.7h.423V46.9c-.282.148-.445.038-.591-.263-.8-1.658-1.617-3.306-2.428-4.958a1.606,1.606,0,0,0-.348-.509v5.649H243.1Z" stroke="#fff" stroke-miterlimit="10" stroke-width="1"/>
    <path id="Trazado_14" data-name="Trazado 14" d="M323.294,22.9c-.011-.257-.019-.4-.019-.535,0-1.3.013-2.6-.009-3.9-.008-.385.1-.545.409-.536a8.632,8.632,0,0,1,1.627.069c1.1.249,1.644,1.232,1.582,2.7a2.183,2.183,0,0,1-1.789,2.2A16.572,16.572,0,0,1,323.294,22.9Zm1.017-2.508c0,.36.015.724,0,1.083-.016.307.1.374.33.361.883-.048,1.372-1.044,1.019-2.091a1.044,1.044,0,0,0-1.06-.788c-.2.013-.3.092-.289.351C324.323,19.668,324.311,20.03,324.311,20.391Z" stroke="#fff" stroke-miterlimit="10" stroke-width="1"/>
    <path id="Trazado_15" data-name="Trazado 15" d="M331.361,22.9V18a3.639,3.639,0,0,1,2.6.235,2.654,2.654,0,0,1,.981,2.795,2.138,2.138,0,0,1-1.754,1.86A17.085,17.085,0,0,1,331.361,22.9Zm1.032-2.487c0,.349.016.7,0,1.046s.119.393.354.376c.875-.061,1.358-1.019,1.031-2.057a1.06,1.06,0,0,0-1.076-.821c-.211.012-.321.1-.309.373C332.4,19.69,332.393,20.052,332.393,20.412Z" stroke="#fff" stroke-miterlimit="10" stroke-width="1"/>
    <path id="Trazado_16" data-name="Trazado 16" d="M268,44.742a4.237,4.237,0,0,0,.483-.821.517.517,0,0,0-.329-.653,1.237,1.237,0,0,0-1.455.37,1.85,1.85,0,0,0-.038,1.784,2.126,2.126,0,0,0,3.16.651,1.772,1.772,0,0,0,.049-2.658c-.332-.292-.709-.511-1.05-.788a8.258,8.258,0,0,1-1.072-.945,1.7,1.7,0,0,1-.2-2.037,1.316,1.316,0,0,1,1.716-.607l.559.241c0,.364.005.761,0,1.157,0,.057-.064.112-.1.169a.932.932,0,0,1-.139-.163.677.677,0,0,1-.032-.187c-.142-.824-.871-1.173-1.467-.7a.913.913,0,0,0-.054,1.308,4.873,4.873,0,0,0,.684.593,16.606,16.606,0,0,1,1.71,1.354,2.483,2.483,0,0,1,.043,3.3,2.345,2.345,0,0,1-1.439.854,2.448,2.448,0,0,1-2.589-.891,2.486,2.486,0,0,1-.18-2.491,1.489,1.489,0,0,1,1.862-.794,1.238,1.238,0,0,1,.87.906.939.939,0,0,1-.147.866.739.739,0,0,1-.789.24C268.01,44.784,267.977,44.719,268,44.742Z" stroke="#fff" stroke-miterlimit="10" stroke-width="1"/>
    <path id="Trazado_17" data-name="Trazado 17" d="M281.688,20.4c.719-.121,1.007-.384.95-.82s-.43-.629-1.056-.512V22.81l-1.059.1c-.009-.156-.022-.269-.022-.382,0-1.379.006-2.759-.006-4.138,0-.3.077-.419.334-.4a12.927,12.927,0,0,1,1.922.109,1.4,1.4,0,0,1,.993,1.713c-.053.4-.189.6-.728,1.107.248.483.5.972.772,1.509l-.906.606C282.482,22.144,282.093,21.289,281.688,20.4Z" stroke="#fff" stroke-miterlimit="10" stroke-width="1"/>
    <path id="Trazado_18" data-name="Trazado 18" d="M314.586,20.475a1.317,1.317,0,0,1,.371,1.447,1.125,1.125,0,0,1-1.12.886c-.572.058-1.152.014-1.765.014-.008-.153-.023-.288-.025-.423,0-1.314.012-2.629-.008-3.943-.006-.384.107-.493.41-.469.532.041,1.072,0,1.6.093A1.235,1.235,0,0,1,315,19.6,3.9,3.9,0,0,1,314.586,20.475Zm-1.573-.428c.212,0,.4.058.548-.015a.862.862,0,0,0,.43-.442.644.644,0,0,0-.191-.537,1.956,1.956,0,0,0-.72-.141c-.018,0-.062.1-.064.159C313.01,19.391,313.013,19.709,313.013,20.047Zm.011.718v.591c0,.559.278.766.689.472a.7.7,0,0,0,.238-.484.587.587,0,0,0-.245-.433A2.453,2.453,0,0,0,313.024,20.765Z" stroke="#fff" stroke-miterlimit="10" stroke-width="1"/>
    <path id="Trazado_19" data-name="Trazado 19" d="M302.6,20.383V18l.968-.067v5c-.788-.841-1.533-1.638-2.33-2.488v2.354l-.971.109V17.881Z" stroke="#fff" stroke-miterlimit="10" stroke-width="1"/>
    <path id="Trazado_20" data-name="Trazado 20" d="M292.41,22.809l-1.062.1V18.023a4.116,4.116,0,0,1,2.461.155,1.587,1.587,0,0,1,.767,1.605,1.6,1.6,0,0,1-.91,1.552,6.462,6.462,0,0,1-1.257.261C292.41,21.954,292.41,22.36,292.41,22.809Zm-.059-3.116v.193c0,.53.162.665.6.505a.845.845,0,0,0,.179-.087.723.723,0,0,0,.258-.827.737.737,0,0,0-.854-.46c-.324.082-.134.4-.187.6A.388.388,0,0,0,292.351,19.693Z" stroke="#fff" stroke-miterlimit="10" stroke-width="1"/>
    <path id="Trazado_21" data-name="Trazado 21" d="M255.714,39.141h2.942c0,.5.005.981-.006,1.466,0,.06-.082.117-.125.175-.048-.056-.134-.109-.14-.17-.032-.376-.1-.777-.431-.883a6.875,6.875,0,0,0-1.318-.2c-.041,0-.136.132-.136.2-.011.592-.005,1.183-.005,1.826h1.089v.533h-1.061c-.012.152-.028.263-.028.374,0,1.2.005,2.4-.006,3.6,0,.3.066.433.33.4.206-.024.416-.007.621-.039.645-.1.8-.29.941-1.052.016-.088.1-.155.16-.233.04.078.112.153.114.233.012.412.018.826-.005,1.238,0,.09-.131.243-.2.244q-1.279.027-2.56,0c-.075,0-.21-.152-.21-.234-.009-2.465,0-4.93,0-7.4C255.679,39.209,255.7,39.186,255.714,39.141Z" stroke="#fff" stroke-miterlimit="10" stroke-width="1"/>
    <path id="Trazado_22" data-name="Trazado 22" d="M304.487,21.4c.334.177.614.343.906.471a.814.814,0,0,0,.419.042.476.476,0,0,0,.455-.466.484.484,0,0,0-.382-.538c-.21-.07-.429-.1-.637-.179a1.5,1.5,0,0,1-.459-2.417,1.642,1.642,0,0,1,2.542.283c-.161.284-.326.578-.5.892a2.505,2.505,0,0,0-.373-.4.833.833,0,0,0-.509-.2.624.624,0,0,0-.44.342c-.1.265.122.41.313.489a5.007,5.007,0,0,0,.508.149,1.358,1.358,0,0,1,1.066,1.542,1.5,1.5,0,0,1-1.154,1.543,2.083,2.083,0,0,1-1.505-.209.586.586,0,0,1-.233-.384A8.333,8.333,0,0,1,304.487,21.4Z" stroke="#fff" stroke-miterlimit="10" stroke-width="1"/>
    <path id="Trazado_23" data-name="Trazado 23" d="M287.749,21.412c.33.177.592.335.866.455a.85.85,0,0,0,.418.05.471.471,0,0,0,.472-.482.479.479,0,0,0-.394-.528c-.21-.068-.428-.1-.636-.178a1.511,1.511,0,0,1-.458-2.4,1.638,1.638,0,0,1,2.554.27c-.162.287-.329.581-.524.927-.115-.154-.187-.327-.3-.388a1.783,1.783,0,0,0-.7-.231c-.1-.007-.275.2-.294.332a.565.565,0,0,0,.2.419,1.532,1.532,0,0,0,.527.189,1.414,1.414,0,0,1,1.156,1.658,1.436,1.436,0,0,1-1.356,1.471,5,5,0,0,1-1.311-.235c-.091-.024-.2-.225-.21-.357C287.729,22.069,287.749,21.748,287.749,21.412Z" stroke="#fff" stroke-miterlimit="10" stroke-width="1"/>
    <path id="Trazado_24" data-name="Trazado 24" d="M303.581,39.141h2.947c0,.508,0,1,0,1.482,0,.053-.07.1-.1.158-.047-.054-.125-.1-.134-.163-.054-.365-.1-.78-.437-.885a6.513,6.513,0,0,0-1.318-.2c-.046,0-.146.175-.149.272-.015.49,0,.981-.009,1.471,0,.216.074.3.253.3.271-.006.542,0,.835,0V42.1c-.266,0-.533.012-.8,0-.212-.012-.29.08-.288.333q.01,1.858,0,3.718c0,.231.074.333.271.319.24-.019.482-.009.719-.045.6-.092.777-.3.91-1.006a1.059,1.059,0,0,1,.129-.267.891.891,0,0,1,.127.293c.015.374,0,.749.009,1.123.007.241-.08.314-.271.312q-1.23-.01-2.461,0c-.172,0-.26-.061-.259-.288q.006-3.641.006-7.28A.61.61,0,0,1,303.581,39.141Z" stroke="#fff" stroke-miterlimit="10" stroke-width="1"/>
    <path id="Trazado_25" data-name="Trazado 25" d="M250.268,39.1a3.091,3.091,0,0,1,.688.015c.1.023.208.2.24.326.44,1.808.869,3.62,1.3,5.43a1.729,1.729,0,0,0,.2.517c.035-.124.073-.248.1-.373.457-1.83.921-3.656,1.362-5.49.092-.378.235-.523.591-.376-.037.176-.069.359-.115.538q-.873,3.464-1.748,6.926c-.051.206-.069.414-.337.422s-.32-.176-.38-.411q-.9-3.534-1.808-7.067C250.329,39.428,250.307,39.292,250.268,39.1Z" stroke="#fff" stroke-miterlimit="10" stroke-width="1"/>
    <path id="Trazado_26" data-name="Trazado 26" d="M275.658,9.683V31.321h-.383c-.008-.121-.022-.235-.022-.348q0-10.473-.006-20.946C275.248,9.67,275.343,9.55,275.658,9.683Z" stroke="#fff" stroke-miterlimit="10" stroke-width="1"/>
    <path id="Trazado_27" data-name="Trazado 27" d="M338.579,46.789q.363-1.383.724-2.761c.418-1.6.834-3.2,1.262-4.8.032-.12.153-.206.232-.309.078.085.2.155.227.258q.969,3.754,1.919,7.515a.848.848,0,0,1-.006.144,5.293,5.293,0,0,1-.723-.013c-.066-.009-.141-.172-.168-.28-.243-1.03-.482-2.061-.707-3.1-.06-.281-.16-.4-.421-.4-.963,0-.962-.008-1.236,1.086-.2.779-.409,1.55-.586,2.334C339.02,46.813,338.887,46.923,338.579,46.789Zm2.491-4.505-.419-1.876-.091.013c-.149.609-.3,1.216-.453,1.863Z" stroke="#fff" stroke-miterlimit="10" stroke-width="1"/>
    <path id="Trazado_28" data-name="Trazado 28" d="M280.993,46.783c.183-.7.361-1.387.54-2.075.475-1.81.946-3.62,1.43-5.426.037-.14.173-.243.262-.363a1.293,1.293,0,0,1,.236.355q.932,3.6,1.845,7.217c.025.1.04.2.071.35-.215,0-.408-.015-.6,0s-.286-.078-.336-.3c-.226-1.036-.474-2.065-.695-3.1-.062-.291-.173-.388-.427-.387-.95.005-.95-.006-1.22,1.056-.2.79-.406,1.577-.6,2.372C281.436,46.782,281.318,46.93,280.993,46.783Zm2.489-4.5c-.146-.657-.282-1.267-.419-1.878h-.089c-.151.614-.3,1.227-.458,1.878Z" stroke="#fff" stroke-miterlimit="10" stroke-width="1"/>
    <path id="Trazado_29" data-name="Trazado 29" d="M323.011,16.473a1.892,1.892,0,0,1-1.819-2.131,1.866,1.866,0,1,1,3.7.026A1.894,1.894,0,0,1,323.011,16.473Zm-.863-2.131c-.006.689.33,1.136.864,1.15.56.015.934-.429.937-1.112s-.359-1.135-.884-1.143S322.154,13.692,322.148,14.342Z" stroke="#fff" stroke-miterlimit="10" stroke-width="1"/>
    <path id="Trazado_30" data-name="Trazado 30" d="M287.1,18.992h-1.536a1.547,1.547,0,0,0-.047.219c-.028.609-.028.609.5.609h.733a7.31,7.31,0,0,1-.01.79c-.007.073-.14.175-.219.18-.316.02-.632.008-1.005.008a7.71,7.71,0,0,0,.012.852c.009.074.168.172.259.177.467.017.935.008,1.454.008-.062.324-.1.6-.174.862-.016.062-.134.122-.2.123-.774.008-1.55.005-2.363.005-.012-.135-.031-.257-.031-.379,0-1.341.007-2.681-.008-4.021,0-.337.106-.412.366-.4.578.018,1.159.029,1.736,0,.324-.019.465.108.47.483A4.883,4.883,0,0,0,287.1,18.992Z" stroke="#fff" stroke-miterlimit="10" stroke-width="1"/>
    <path id="Trazado_31" data-name="Trazado 31" d="M331.068,22.48l-.9.407c-.033-.038-.059-.052-.064-.073a.756.756,0,0,0-.984-.682,1.357,1.357,0,0,1-.23,0c-.262,0-.561-.084-.774.038-.19.108-.285.449-.433.711-.2-.08-.416-.162-.631-.25-.081-.032-.157-.077-.272-.134.7-1.575,1.386-3.133,2.1-4.743C329.62,19.358,330.336,20.9,331.068,22.48Zm-2.1-2.51-.1-.007c-.153.408-.306.816-.474,1.262h1.069C329.289,20.774,329.13,20.372,328.972,19.97Z" stroke="#fff" stroke-miterlimit="10" stroke-width="1"/>
    <path id="Trazado_32" data-name="Trazado 32" d="M311.75,22.482l-.884.4c-.038-.039-.064-.053-.069-.074a.765.765,0,0,0-.985-.683,2.368,2.368,0,0,1-.688,0c-.312-.042-.5.092-.578.447a2.414,2.414,0,0,1-.133.321l-.962-.377,2.1-4.762Zm-1.585-1.255-.552-1.383c-.2.528-.355.933-.526,1.383Z" stroke="#fff" stroke-miterlimit="10" stroke-width="1"/>
    <path id="Trazado_33" data-name="Trazado 33" d="M313.336,15.92V16.3h-1.38c-.007-.121-.015-.241-.023-.357.465-.135.465-.135.465-.724V11.848l-.445-.056c-.006-.125-.012-.246-.019-.422a7.342,7.342,0,0,1,.932.014c.1.013.2.175.262.3.461.922.913,1.85,1.368,2.774.07.142.143.282.265.522.027-.2.048-.286.049-.376,0-.8,0-1.6,0-2.4,0-.264-.038-.421-.3-.4-.052.005-.158-.134-.157-.206s.1-.216.154-.218c.412-.018.824-.01,1.251-.01.006.16.011.271.017.41l-.478.071c-.007.174-.02.338-.02.5,0,1.225,0,2.451-.008,3.675a1.4,1.4,0,0,1-.122.39c-.131-.08-.319-.119-.386-.247-.543-1.059-1.063-2.133-1.59-3.2a.98.98,0,0,0-.252-.348c-.009.1-.025.2-.025.3q0,1.2,0,2.4C312.9,15.844,312.9,15.844,313.336,15.92Z" stroke="#fff" stroke-miterlimit="10" stroke-width="1"/>
    <path id="Trazado_34" data-name="Trazado 34" d="M286.579,29.64a2.467,2.467,0,0,1-2.267-2.713,2.3,2.3,0,1,1,4.533.038A2.46,2.46,0,0,1,286.579,29.64Zm.011-4.813a1.894,1.894,0,0,0-1.727,2.106,1.752,1.752,0,1,0,3.43.029A1.9,1.9,0,0,0,286.59,24.827Z" stroke="#fff" stroke-miterlimit="10" stroke-width="1"/>
    <path id="Trazado_35" data-name="Trazado 35" d="M298.563,24.365v.452l-.507.039c.038.155.066.286.1.413.32,1.123.648,2.243.959,3.37.079.285.172.5.493.425v.452h-1.452v-.425l.476-.065c-.108-.395-.2-.764-.314-1.118-.023-.07-.157-.122-.241-.125-.371-.013-.744-.013-1.115,0a.286.286,0,0,0-.234.134c-.117.354-.2.722-.312,1.116l.505.049c.006.13.013.262.022.458-.448,0-.871.009-1.29-.011-.058,0-.15-.143-.152-.224s.091-.229.141-.228c.2,0,.283-.111.344-.323.35-1.206.712-2.407,1.07-3.611.025-.083.035-.171.058-.283l-.45-.042c-.084-.282-.069-.464.252-.456C297.461,24.373,298.005,24.365,298.563,24.365Zm-.971.8-.075-.009c-.2.691-.4,1.382-.6,2.092h1.268c-.019-.1-.026-.167-.042-.226Q297.866,26.09,297.592,25.161Z" stroke="#fff" stroke-miterlimit="10" stroke-width="1"/>
    <path id="Trazado_36" data-name="Trazado 36" d="M329.9,46.845c-.891,0-1.73,0-2.57,0-.221,0-.2-.184-.2-.348,0-.761,0-1.521,0-2.282,0-1.561.012-3.121-.007-4.68-.006-.423.166-.436.44-.444.29-.008.4.083.395.451-.015,2.1-.008,4.2-.008,6.3,0,.568,0,.571.492.544a3.071,3.071,0,0,0,.487-.069.858.858,0,0,0,.675-.825,1,1,0,0,1,.043-.264.871.871,0,0,1,.153-.193c.035.068.1.137.1.207C329.9,45.758,329.9,46.272,329.9,46.845Z" stroke="#fff" stroke-miterlimit="10" stroke-width="1"/>
    <path id="Trazado_37" data-name="Trazado 37" d="M309.338,16.414a2.34,2.34,0,0,1-2.2-2.549,2.366,2.366,0,0,1,2.169-2.624,2.39,2.39,0,0,1,2.2,2.6A2.328,2.328,0,0,1,309.338,16.414Zm1.612-2.581a1.826,1.826,0,0,0-1.624-2.044c-.945,0-1.639.873-1.635,2.066s.684,2.032,1.623,2.037S310.952,15.033,310.95,13.833Z" stroke="#fff" stroke-miterlimit="10" stroke-width="1"/>
    <path id="Trazado_38" data-name="Trazado 38" d="M282.9,24.632l.316-.257a1.545,1.545,0,0,1,.143.4c.022.319.007.642.007.968-.232.127-.363.08-.475-.2a1.05,1.05,0,0,0-1.283-.714.7.7,0,0,0-.542.68.675.675,0,0,0,.42.74c.3.12.609.2.91.314a3.774,3.774,0,0,1,.7.327,1.336,1.336,0,0,1,.6,1.275,1.425,1.425,0,0,1-.642,1.221,1.494,1.494,0,0,1-1.827-.173c-.062-.046-.117-.1-.205-.185-.023.166-.041.286-.065.439H280.5c0-.509-.006-1.009.007-1.508,0-.062.118-.18.165-.169a.591.591,0,0,1,.346.175,8.452,8.452,0,0,0,.532.806.918.918,0,0,0,.99.237.879.879,0,0,0,.577-.8.8.8,0,0,0-.48-.866c-.346-.153-.714-.237-1.065-.38a1.351,1.351,0,0,1-.963-.948,1.329,1.329,0,0,1,1.543-1.736A3.629,3.629,0,0,1,282.9,24.632Z" stroke="#fff" stroke-miterlimit="10" stroke-width="1"/>
    <path id="Trazado_39" data-name="Trazado 39" d="M328.22,16.463l-.958-1.03c-.3-.319-.593-.64-.967-1.042,0,.467-.006.829,0,1.191.018.863.014.869-.77.782V12.333l1.882,2.011V12.432h.812Z" stroke="#fff" stroke-miterlimit="10" stroke-width="1"/>
    <path id="Trazado_40" data-name="Trazado 40" d="M284.165,16.313v-.369c.439-.141.439-.141.439-.7,0-1.006,0-2.013,0-3.018,0-.24,0-.441-.285-.417-.055,0-.174-.15-.162-.2.023-.093.114-.231.178-.231a11.937,11.937,0,0,1,2.029.055c1.188.2,1.772,1.165,1.708,2.645a2.115,2.115,0,0,1-1.933,2.227C285.49,16.355,284.835,16.313,284.165,16.313Zm.956-2.486v1.2c0,.925,0,.925.785.85a1.714,1.714,0,0,0,1.608-1.724c.076-1.279-.357-2.076-1.274-2.294a6.113,6.113,0,0,0-.847-.074c-.218-.021-.28.1-.274.344C285.13,12.693,285.122,13.26,285.121,13.827Z" stroke="#fff" stroke-miterlimit="10" stroke-width="1"/>
    <path id="Trazado_41" data-name="Trazado 41" d="M283.306,14.987c.339-.127.467-.038.464.354,0,1,.008,1-.839,1-.711,0-1.423-.008-2.134,0-.284.005-.346-.132-.255-.45.429.091.429-.223.424-.595-.013-1.006,0-2.013,0-3.021v-.391c-.057-.037-.075-.051-.094-.061-.13-.062-.37.1-.364-.237.006-.355.247-.225.393-.227.843-.012,1.685,0,2.527-.011.248,0,.364.076.343.392-.019.291,0,.586,0,.9h-.43c-.009-.063-.021-.112-.024-.161-.031-.672-.031-.672-.614-.672H281.51c0,.514-.01.987.012,1.458,0,.072.159.185.247.19.38.02.763.008,1.135.008.114.467.1.5-.272.5s-.717,0-1.124,0v1.908c.573,0,1.125.006,1.676-.01.043,0,.111-.142.117-.223C283.318,15.435,283.306,15.217,283.306,14.987Z" stroke="#fff" stroke-miterlimit="10" stroke-width="1"/>
    <path id="Trazado_42" data-name="Trazado 42" d="M292.68,24.7c.175-.148.278-.3.39-.315.246-.024.174.232.178.4.009.371,0,.741,0,1.112l-.087.1c-.137-.091-.353-.145-.4-.28a1.433,1.433,0,0,0-2.566-.179c-.786,1.273-.269,3.183.966,3.493a1.312,1.312,0,0,0,1.577-.769c.149-.331.32-.417.6-.313a1.836,1.836,0,0,1-1.231,1.6,2.1,2.1,0,0,1-2.568-1.28,3.275,3.275,0,0,1,.52-3.435,1.93,1.93,0,0,1,2.511-.208C292.632,24.665,292.7,24.71,292.68,24.7Z" stroke="#fff" stroke-miterlimit="10" stroke-width="1"/>
    <path id="Trazado_43" data-name="Trazado 43" d="M320.6,21.834c-.063.317-.1.569-.166.811-.019.073-.113.168-.174.169-.763.012-1.524.008-2.313.008-.008-.156-.021-.281-.021-.407,0-1.328.007-2.655-.006-3.983,0-.323.061-.452.358-.459.748-.015.748-.032.748.84s.009,1.753,0,2.629c-.005.3.082.411.34.4C319.751,21.819,320.142,21.834,320.6,21.834Z" stroke="#fff" stroke-miterlimit="10" stroke-width="1"/>
    <path id="Trazado_44" data-name="Trazado 44" d="M298.458,11.847,298,11.8c-.087-.26-.088-.441.222-.435.448.009.9-.01,1.345.012a.353.353,0,0,1,.269.209c.051.258-.134.228-.275.236a1.826,1.826,0,0,0-.224.044c.221.779.436,1.533.651,2.287.122.427.258.85.364,1.283.073.3.177.526.515.451.006.148.011.269.016.416H299.47v-.387l.453-.07c-.1-.369-.187-.713-.3-1.045a.3.3,0,0,0-.218-.171c-.371-.017-.743-.017-1.114,0a.294.294,0,0,0-.224.16c-.114.331-.2.675-.308,1.06a.975.975,0,0,1,.323.045c.078.044.129.148.194.226-.06.068-.119.194-.181.2-.39.018-.782.009-1.187.009v-.414c.352.066.428-.219.518-.527.3-1.037.614-2.069.921-3.1C298.384,12.146,298.415,12.011,298.458,11.847Zm.44.255-.088.005c-.183.672-.367,1.345-.557,2.046H299.5C299.289,13.441,299.094,12.772,298.9,12.1Z" stroke="#fff" stroke-miterlimit="10" stroke-width="1"/>
    <path id="Trazado_45" data-name="Trazado 45" d="M288.489,11.83v-.423h1.406c.007.122.015.243.02.359-.459.129-.459.129-.459.693,0,.761-.012,1.522,0,2.282.018.862.307,1.178,1.009,1.155a.734.734,0,0,0,.787-.781c.058-.689.044-1.388.056-2.084,0-.384,0-.768,0-1.174l-.443-.071c-.008-.114-.013-.234-.024-.39h1.414c.006.129.01.249.016.388l-.456.065v.761c0,.722,0,1.445,0,2.167-.01,1.09-.505,1.654-1.437,1.655s-1.418-.554-1.43-1.661c-.009-.8-.018-1.6,0-2.4C288.967,11.988,288.921,11.73,288.489,11.83Z" stroke="#fff" stroke-miterlimit="10" stroke-width="1"/>
    <path id="Trazado_46" data-name="Trazado 46" d="M332.209,46.828h-.766c-.007-.147-.017-.284-.019-.42q0-3.441,0-6.881c0-.139.043-.392.088-.4a2.512,2.512,0,0,1,.676.01c.025,0,.056.156.056.239q0,3.614,0,7.228A1.266,1.266,0,0,1,332.209,46.828Z" stroke="#fff" stroke-miterlimit="10" stroke-width="1"/>
    <path id="Trazado_47" data-name="Trazado 47" d="M273.064,46.829H272.3c-.006-.146-.017-.282-.017-.419q0-3.442,0-6.884c0-.139.043-.391.089-.4a2.646,2.646,0,0,1,.677.006c.024,0,.056.132.056.2q0,3.693-.007,7.387A.445.445,0,0,1,273.064,46.829Z" stroke="#fff" stroke-miterlimit="10" stroke-width="1"/>
    <path id="Trazado_48" data-name="Trazado 48" d="M249.127,46.819h-.789c-.006-.132-.018-.256-.018-.38,0-2.308.009-4.617-.01-6.924,0-.424.157-.447.431-.443s.416.019.413.426c-.018,2.32-.009,4.641-.009,6.962C249.145,46.574,249.134,46.686,249.127,46.819Z" stroke="#fff" stroke-miterlimit="10" stroke-width="1"/>
    <path id="Trazado_49" data-name="Trazado 49" d="M296.519,12.908c-.177-.1-.4-.138-.433-.257a1.366,1.366,0,0,0-2.452-.227,2.6,2.6,0,0,0-.187,2.413,1.455,1.455,0,0,0,1.478,1.042,1.19,1.19,0,0,0,1.131-.772c.133-.3.293-.38.547-.292a1.7,1.7,0,0,1-1.189,1.524,2.053,2.053,0,0,1-2.571-1.5,2.892,2.892,0,0,1,1.009-3.329,1.812,1.812,0,0,1,2.225.221c.023-.14.044-.256.068-.392h.372C296.519,11.83,296.519,12.312,296.519,12.908Z" stroke="#fff" stroke-miterlimit="10" stroke-width="1"/>
    <path id="Trazado_50" data-name="Trazado 50" d="M304.824,14.867a1.8,1.8,0,0,1-1.232,1.467,1.883,1.883,0,0,1-2.223-.8,3.027,3.027,0,0,1-.25-2.915,1.9,1.9,0,0,1,1.962-1.364,5.507,5.507,0,0,1,1.178.358c.009-.027.042-.142.081-.272h.334V12.9c-.172-.093-.378-.122-.429-.243a1.245,1.245,0,0,0-1.373-.873,1.524,1.524,0,0,0-1.357,1.2,2.8,2.8,0,0,0-.007,1.631,1.559,1.559,0,0,0,1.322,1.256,1.335,1.335,0,0,0,1.445-.885c.071-.146.319-.173.486-.254C304.783,14.776,304.8,14.821,304.824,14.867Z" stroke="#fff" stroke-miterlimit="10" stroke-width="1"/>
    <path id="Trazado_51" data-name="Trazado 51" d="M320.827,13.473c-.682-.314-1.1-.241-1.381.224a1.344,1.344,0,0,0,.034,1.4c.312.437.707.466,1.41.091a8.64,8.64,0,0,1-.01.884.392.392,0,0,1-.209.277,1.556,1.556,0,0,1-1.825-.454,2.5,2.5,0,0,1-.366-2.342,1.571,1.571,0,0,1,1.427-1.26c.01,0,.022,0,.032,0C320.968,12.3,320.908,12.282,320.827,13.473Z" stroke="#fff" stroke-miterlimit="10" stroke-width="1"/>
    <path id="Trazado_52" data-name="Trazado 52" d="M316.885,17.99v4.832l-1.038.092a1.647,1.647,0,0,1-.034-.22c0-1.457,0-2.915,0-4.374,0-.22.043-.342.252-.333C316.321,18,316.583,17.99,316.885,17.99Z" stroke="#fff" stroke-miterlimit="10" stroke-width="1"/>
    <path id="Trazado_53" data-name="Trazado 53" d="M322.241,20.44c0,.669-.008,1.34,0,2.009,0,.261-.041.393-.3.411-.979.071-.778.154-.789-.84-.014-1.2.005-2.4-.009-3.593-.005-.336.084-.445.371-.448.721-.008.721-.024.723.839Z" stroke="#fff" stroke-miterlimit="10" stroke-width="1"/>
    <path id="Trazado_54" data-name="Trazado 54" d="M302.338,28.058h.453c0,.435.005.855-.006,1.275,0,.058-.092.159-.14.159-.937.01-1.875.008-2.829.008v-.406a.725.725,0,0,0,.25-.04c.081-.046.2-.137.2-.209.008-1.3,0-2.606-.005-3.909,0-.022-.021-.044-.04-.082l-.39-.037c-.083-.291-.053-.47.259-.457s.634,0,.951,0c.149,0,.324-.035.324.249s-.168.209-.3.221c-.065.005-.129.013-.23.024-.005.126-.019.25-.019.374,0,1.136.011,2.271-.007,3.407-.006.352.1.451.377.426a7.062,7.062,0,0,1,.885,0c.2.008.278-.082.268-.315C302.33,28.533,302.338,28.315,302.338,28.058Z" stroke="#fff" stroke-miterlimit="10" stroke-width="1"/>
    <path id="Trazado_55" data-name="Trazado 55" d="M293.883,24.8c-.075-.327.01-.445.247-.438.306.008.613,0,.918,0s.31.01.288.437l-.477.068v3.6c0,.549,0,.549.461.629.1.329.016.47-.293.448s-.591,0-.885,0c-.144,0-.293.017-.3-.242,0-.223.117-.22.255-.252a.34.34,0,0,0,.215-.233c.009-1.289,0-2.578,0-3.868,0-.023-.019-.045-.037-.085C294.151,24.843,294.015,24.823,293.883,24.8Z" stroke="#fff" stroke-miterlimit="10" stroke-width="1"/>
    <path id="Trazado_56" data-name="Trazado 56" d="M306.7,11.363v.425l-.437.066v.892c0,.85.009,1.7,0,2.551-.006.368-.008.688.443.593v.41h-1.393v-.358c.431-.138.431-.138.431-.707,0-.953,0-1.907,0-2.86,0-.324.086-.735-.4-.545-.1-.338-.043-.483.243-.471C305.952,11.374,306.32,11.363,306.7,11.363Z" stroke="#fff" stroke-miterlimit="10" stroke-width="1"/>
    <path id="Trazado_57" data-name="Trazado 57" d="M308.995,10.763a9.087,9.087,0,0,1,.5-.939c.079-.118.272-.127.44-.135-.271.417-.419.954-.864,1.146Z" stroke="#fff" stroke-miterlimit="10" stroke-width="1"/>
    <path id="Trazado_58" data-name="Trazado 58" d="M260.865,44.141c-.048.061-.109.135-.175.217-.022-.04-.053-.071-.053-.1,0-1.315-.01-2.63,0-3.945a.6.6,0,0,1,.188-.368,1.8,1.8,0,0,1,2.332-.159,3.36,3.36,0,0,1,1.184,3.3,1.819,1.819,0,0,1-2.3,1.631A10.148,10.148,0,0,1,260.865,44.141Z" stroke="#fff" stroke-miterlimit="10" stroke-width="1"/>
    <path id="Trazado_59" data-name="Trazado 59" d="M246.507,19.7c0-7.688,5.3-13.944,11.814-13.933s11.8,6.279,11.8,13.963c0,7.72-5.42,14-11.939,13.914S246.44,27.144,246.507,19.7Zm11.836,13.136c5.918.059,11.069-5.588,11.137-12.909.068-7.374-4.914-13.315-11.089-13.332-6.13-.018-11.13,5.872-11.134,13.117S252.209,32.816,258.343,32.832Z" stroke="#fff" stroke-miterlimit="10" stroke-width="1"/>
    <path id="Trazado_60" data-name="Trazado 60" d="M319.767,42.445c-.005-2.323,1.755-3.567,3.59-2.538a4.252,4.252,0,0,1,1.9,3.928,2.47,2.47,0,0,1-2.308,2.412C321.169,46.326,319.771,44.657,319.767,42.445Z" stroke="#fff" stroke-miterlimit="10" stroke-width="1"/>
    <path id="Trazado_61" data-name="Trazado 61" d="M275.307,42.987c0-.929-.007-1.858.008-2.787,0-.136.079-.36.164-.392a2.711,2.711,0,0,1,3.845,1.881,3.825,3.825,0,0,1-1.2,4.358,2.931,2.931,0,0,1-2.645.153c-.083-.027-.167-.252-.168-.387C275.3,44.871,275.309,43.929,275.307,42.987Z" stroke="#fff" stroke-miterlimit="10" stroke-width="1"/>
    <path id="Trazado_62" data-name="Trazado 62" d="M298.847,46.466c-.387-.076-.778-.133-1.158-.242a.454.454,0,0,1-.218-.339q-.02-2.884,0-5.769a.417.417,0,0,1,.163-.315c1.925-.75,3.475.233,3.941,2.265a3.76,3.76,0,0,1-1.271,3.968A2.669,2.669,0,0,1,298.847,46.466Z" stroke="#fff" stroke-miterlimit="10" stroke-width="1"/>
    <path id="Trazado_63" data-name="Trazado 63" d="M288.415,46.466c-.387-.076-.778-.132-1.158-.241a.451.451,0,0,1-.219-.342q-.02-2.885,0-5.768a.434.434,0,0,1,.2-.323,2.64,2.64,0,0,1,3.5,1.185,4.287,4.287,0,0,1-.2,4.429A2.54,2.54,0,0,1,288.415,46.466Z" stroke="#fff" stroke-miterlimit="10" stroke-width="1"/>
    <path id="Trazado_64" data-name="Trazado 64" d="M297.211,21.775c-.661,0-1.094-.536-1.105-1.363a1.24,1.24,0,0,1,1.118-1.371c.642-.005,1.1.569,1.091,1.383S297.879,21.776,297.211,21.775Z" stroke="#fff" stroke-miterlimit="10" stroke-width="1"/>
    <path id="Trazado_65" data-name="Trazado 65" d="M324.311,20.391c0-.361.012-.723,0-1.084-.01-.259.092-.338.289-.351a1.044,1.044,0,0,1,1.06.788c.354,1.048-.135,2.043-1.019,2.091-.231.013-.346-.054-.33-.361C324.326,21.115,324.311,20.753,324.311,20.391Z" stroke="#fff" stroke-miterlimit="10" stroke-width="1"/>
    <path id="Trazado_66" data-name="Trazado 66" d="M332.393,20.412c0-.36.012-.724,0-1.083-.012-.277.1-.361.309-.373a1.061,1.061,0,0,1,1.076.821c.327,1.038-.156,2-1.031,2.057-.235.017-.375-.042-.354-.376S332.393,20.761,332.393,20.412Z" stroke="#fff" stroke-miterlimit="10" stroke-width="1"/>
    <path id="Trazado_67" data-name="Trazado 67" d="M313.013,20.047c0-.338,0-.656,0-.975,0-.055.046-.161.064-.159a1.913,1.913,0,0,1,.72.141.646.646,0,0,1,.191.537.851.851,0,0,1-.43.442A1.362,1.362,0,0,1,313.013,20.047Z" stroke="#fff" stroke-miterlimit="10" stroke-width="1"/>
    <path id="Trazado_68" data-name="Trazado 68" d="M313.024,20.765a2.445,2.445,0,0,1,.682.146.587.587,0,0,1,.245.433.7.7,0,0,1-.238.484c-.411.294-.689.087-.689-.472Z" stroke="#fff" stroke-miterlimit="10" stroke-width="1"/>
    <path id="Trazado_69" data-name="Trazado 69" d="M292.351,19.693a.239.239,0,0,1,0-.076c.051-.2-.137-.518.187-.6a.737.737,0,0,1,.854.46.726.726,0,0,1-.258.827.786.786,0,0,1-.18.087c-.44.16-.6.024-.6-.505C292.351,19.821,292.351,19.757,292.351,19.693Z" stroke="#fff" stroke-miterlimit="10" stroke-width="1"/>
    <path id="Trazado_70" data-name="Trazado 70" d="M341.07,42.284h-.965c.158-.647.306-1.255.454-1.863l.091-.013C340.788,41.02,340.925,41.634,341.07,42.284Z" stroke="#fff" stroke-miterlimit="10" stroke-width="1"/>
    <path id="Trazado_71" data-name="Trazado 71" d="M283.482,42.287h-.966c.159-.651.309-1.264.458-1.878h.089C283.2,41.02,283.336,41.63,283.482,42.287Z" stroke="#fff" stroke-miterlimit="10" stroke-width="1"/>
    <path id="Trazado_72" data-name="Trazado 72" d="M322.148,14.342c.006-.65.389-1.111.917-1.1s.887.475.884,1.143-.377,1.127-.937,1.112C322.476,15.478,322.141,15.031,322.148,14.342Z" stroke="#fff" stroke-miterlimit="10" stroke-width="1"/>
    <path id="Trazado_73" data-name="Trazado 73" d="M328.972,19.97c.159.4.317.8.5,1.255H328.4c.168-.446.321-.854.474-1.262Z" stroke="#fff" stroke-miterlimit="10" stroke-width="1"/>
    <path id="Trazado_74" data-name="Trazado 74" d="M310.165,21.227h-1.078c.171-.45.326-.855.526-1.383Z" stroke="#fff" stroke-miterlimit="10" stroke-width="1"/>
    <path id="Trazado_75" data-name="Trazado 75" d="M286.59,24.827a1.9,1.9,0,0,1,1.7,2.136,1.752,1.752,0,1,1-3.43-.028A1.9,1.9,0,0,1,286.59,24.827Z" stroke="#fff" stroke-miterlimit="10" stroke-width="1"/>
    <path id="Trazado_76" data-name="Trazado 76" d="M297.592,25.161q.274.929.547,1.857c.017.06.023.124.042.226h-1.268c.205-.71.4-1.4.6-2.092Z" stroke="#fff" stroke-miterlimit="10" stroke-width="1"/>
    <path id="Trazado_77" data-name="Trazado 77" d="M310.95,13.833c0,1.2-.684,2.063-1.636,2.059s-1.618-.856-1.623-2.037.69-2.07,1.635-2.066A1.826,1.826,0,0,1,310.95,13.833Z" stroke="#fff" stroke-miterlimit="10" stroke-width="1"/>
    <path id="Trazado_78" data-name="Trazado 78" d="M285.122,13.827c0-.567.008-1.134,0-1.7,0-.244.056-.365.274-.344a5.963,5.963,0,0,1,.847.074c.917.218,1.35,1.015,1.274,2.294a1.714,1.714,0,0,1-1.608,1.724c-.785.075-.785.075-.785-.85C285.121,14.626,285.121,14.226,285.122,13.827Z" stroke="#fff" stroke-miterlimit="10" stroke-width="1"/>
    <path id="Trazado_79" data-name="Trazado 79" d="M298.9,12.1c.195.67.391,1.339.6,2.051h-1.243c.19-.7.374-1.374.557-2.046Z" stroke="#fff" stroke-miterlimit="10" stroke-width="1"/>
    <path id="Trazado_80" data-name="Trazado 80" d="M258.343,32.832c-6.132-.015-11.092-5.885-11.088-13.124s5-13.135,11.135-13.117c6.176.017,11.158,5.958,11.089,13.332C269.411,27.244,264.26,32.89,258.343,32.832Zm.038-.552c5.837,0,10.634-5.662,10.635-12.545,0-6.97-4.787-12.637-10.667-12.625C252.5,7.123,247.706,12.794,247.7,19.7S252.51,32.283,258.381,32.28Z" stroke="#fff" stroke-miterlimit="10" stroke-width="1"/>
    <path id="Trazado_81" data-name="Trazado 81" d="M258.381,32.28c-5.871,0-10.682-5.665-10.679-12.581s4.8-12.575,10.647-12.588c5.878-.013,10.667,5.654,10.667,12.625C269.015,26.618,264.218,32.277,258.381,32.28Zm-5.223-14.622c-.025.164-.015.365-.07.395-.243.132-.2.369-.2.6-.012.921-.022,1.842-.033,2.773.451-.059.6-.511.744-1.017a4.653,4.653,0,0,1,.184,1.059c.019,1.033.006,2.065.009,3.1a1.66,1.66,0,0,0,.04.5,1.34,1.34,0,0,0,.243.346c.085-.116.234-.224.244-.349.035-.409.022-.824.024-1.238,0-.3,0-.6,0-.981a1.459,1.459,0,0,1,.262,1.123c.023.6.156.712.593.518.445.582.871,1.17,1.327,1.723a.535.535,0,0,1,.1.633,3.586,3.586,0,0,1-1.394,1.857c.368.362.7.686,1.05,1.032.293-.935.565-1.805.837-2.676l.183.067c-.172.948-.545,1.833-.758,2.794l.659.456c.037-.112.067-.18.083-.252.149-.673.29-1.349.448-2.02a1.3,1.3,0,0,1,.179-.322,1.284,1.284,0,0,1,.058.364c-.067.483-.152.962-.23,1.443-.08.5-.158,1-.239,1.5h1.6c-.177-1.12-.347-2.2-.518-3.283l.181-.052c.278.836.375,1.744.63,2.625a3.358,3.358,0,0,1,.365-.244c.257-.128.323-.3.213-.628-.221-.659-.4-1.336-.592-2.008a2.377,2.377,0,0,1-.045-.4l.148-.045c.275.876.552,1.751.845,2.684l1.047-1.038a3.5,3.5,0,0,1-1.387-1.894.576.576,0,0,1-.005-.415c.485-.66.99-1.3,1.492-1.95.364.229.558.111.592-.39.015-.218-.013-.442.01-.658a4.472,4.472,0,0,1,.131-.555l.109.022c0,.625-.008,1.25.005,1.874.006.266-.05.666.284.66.3-.007.261-.386.262-.646.006-1.149-.01-2.3.01-3.446a6.685,6.685,0,0,1,.171-1.012c.181.812.417,1.143.812,1.1-.024-.265-.064-.53-.067-.8-.008-.7.006-1.395-.011-2.091,0-.135-.115-.262-.171-.4s-.1-.267-.175-.472l.384.065V14.627c-1.075.357-1.8-.051-1.875-1.051.2.273.346.52.529.73.252.289.445.278.71,0-.112-.17-.23-.336-.333-.514s-.193-.369-.289-.556a6.873,6.873,0,0,1,.663.709.437.437,0,0,0,.689-.086l-.437-.526c.029-.034.057-.067.087-.1.555.24.761.17.942-.319a3.235,3.235,0,0,1-1.4-1.66c.157.134.278.224.384.333.3.3.577.629.887.913.07.065.226,0,.344-.006a1.656,1.656,0,0,0-.057-.367,4.261,4.261,0,0,0-.248-.461c.854,1.011.975,1.094,1.317.894-.2-.316-.423-.628-.605-.969a4.7,4.7,0,0,0-1.874-2.149.836.836,0,0,0-1.166.226,1.343,1.343,0,0,0-.266,1.471,1.956,1.956,0,0,1,.116.781,1.165,1.165,0,0,1-1.286,1.009,1.716,1.716,0,0,0-.577.094c-.109.021-.216.055-.325.083-.005-.028-.009-.056-.015-.086.177-.127.352-.255.517-.374-.282-.321-.519-.6-.762-.87a.244.244,0,0,0-.141-.08c-.374-.048-.748-.088-1.128-.13a2.461,2.461,0,0,0-.138,1.481.356.356,0,0,1-.105.259,5.76,5.76,0,0,1-.5.346c-.058.039-.16.074-.166.123-.044.361-.28.411-.514.494a1.1,1.1,0,0,0-.318.225c-.093.081-.165.206-.265.265a8.421,8.421,0,0,1-1.162.624c-.479.186-.982.289-1.474.428-.115-.655-.1-.66.365-.757.342-.073.759.018.954-.483.014-.036.1-.024.149-.05.267-.149.538-.289.794-.458.184-.121.34-.385.523-.4.318-.034.58-.009.475-.532-.01-.048.07-.123.111-.182.1-.138.2-.27.294-.414.125-.195.242-.394.5-.116.111-.472.206-.881.3-1.3.51.244.974.5,1.5.161a4.687,4.687,0,0,0-.711-.5c-.286-.177-.675-.278-.832-.557-.257-.451-.333-.985-.952-1.038-.441-.037-.712.118-.69.581.322.237.606.438.88.658.036.028.015.155.02.235.022.367-.221.767.108,1.062-.15.062-.356.075-.4.184a1.043,1.043,0,0,0,.016.459c-.209.128-.393.239-.577.354a3.431,3.431,0,0,1-.432.273,1,1,0,0,1-1.223-.374,1.182,1.182,0,0,1-.106-1.313,1.433,1.433,0,0,0-.276-1.518.845.845,0,0,0-1.17-.23,3.767,3.767,0,0,0-1.367,1.523c-.293.525-.573,1.062-.856,1.594-.007.013.012.045.018.07.311.1.533-.086.713-.346.213-.309.393-.653.607-.961a5.1,5.1,0,0,1,.443-.5c.031.035.062.071.091.106l-1,1.609a.4.4,0,0,0,.66-.027c.184-.2.316-.459.487-.674a4.715,4.715,0,0,1,.4-.407c.034.044.066.088.1.133-.443.5-.666,1.244-1.293,1.542.187.338.424.43.666.222a4.245,4.245,0,0,0,.474-.579c.1-.128.2-.259.3-.388.032.037.066.073.1.11l-1.058,1.474c.648.535.91-.263,1.277-.687.021.037.04.074.06.111-.187.339-.374.678-.571,1.038.6.228.822-.438,1.224-.669a1.291,1.291,0,0,1-.535.826,1,1,0,0,1-1.277-.064V17.7C252.882,17.7,252.975,17.685,253.158,17.658ZM265,13.014c0,1.666-.011,3.323.008,4.98a.818.818,0,0,0,.7.841c-.025-.346-.067-.7-.07-1.05-.009-1.3,0-2.6,0-3.9C265.629,13.268,265.581,13.2,265,13.014Zm-14.04,5.85c.457-.1.69-.424.691-1.024q.008-2.26,0-4.523a2.545,2.545,0,0,0-.034-.289c-.6.274-.6.274-.6.966,0,1.3,0,2.6,0,3.9C251.015,18.214,250.981,18.528,250.96,18.864Zm1.591,3.113c-.6.173-.6.194-.613.863-.026,1.407.078,2.817-.067,4.22a.912.912,0,0,0,.7-1.032c.012-1.277,0-2.554,0-3.832A1.839,1.839,0,0,0,252.551,21.977Zm12.221,5.086c-.025-.314-.066-.6-.068-.893-.007-1.11,0-2.218,0-3.328,0-.647-.036-.7-.622-.849,0,1.434-.014,2.862.008,4.291A.819.819,0,0,0,264.772,27.063ZM263.157,21.5c-.008.116-.021.227-.021.338,0,1.289-.006,2.579,0,3.868,0,.279-.059.683.3.683s.324-.415.327-.707c.011-1.109,0-2.217,0-3.326C263.774,21.678,263.774,21.678,263.157,21.5Zm1.846.969c0,1.413-.014,2.786.009,4.158a.811.811,0,0,0,.688.812c-.024-.37-.062-.747-.066-1.123-.011-.965,0-1.931,0-2.9C265.629,22.722,265.629,22.722,265,22.468Zm-13.349.023c-.6.138-.635.19-.636.815,0,.27,0,.542,0,.812-.006,1.111-.012,2.221-.018,3.314.416-.106.648-.422.651-1,.006-1.122,0-2.244,0-3.367Zm13.021-9.012c-.027-.015-.055-.03-.081-.046-.177.311-.486.611-.505.935-.064,1.066-.034,2.14-.013,3.211a.747.747,0,0,0,.673.776C264.616,16.736,264.743,15.1,264.675,13.479Zm-11.185,8c-.606.2-.606.2-.608.866q0,1.625,0,3.248a1.376,1.376,0,0,0,.029.458,1.5,1.5,0,0,0,.277.359,1.76,1.76,0,0,0,.287-.349.955.955,0,0,0,.03-.38q0-1.895,0-3.789C253.508,21.76,253.5,21.632,253.49,21.475Zm-1.606-3.087c.48-.123.7-.429.705-1.049.009-.851-.031-1.7.015-2.551a1.861,1.861,0,0,0-.636-1.389v.5c0,1.174.006,2.346-.005,3.519C251.96,17.737,251.912,18.052,251.884,18.388Zm7.69-9.747a1.469,1.469,0,0,1-1.371-.013c-.178-.059-.351-.153-.532-.2-.088-.02-.19.043-.286.068.027.128.02.324.086.371.346.242.439.688.638,1.043a1.351,1.351,0,0,0,1.044.661c.075-.013.138-.129.206-.2a.842.842,0,0,0-.186-.162c-.174-.073-.361-.106-.528-.194-.1-.05-.158-.178-.236-.27.755.249.972.2,1.045-.252l-.839-.134.013-.17a4.458,4.458,0,0,0,.6-.006C259.45,9.158,259.625,9.045,259.574,8.641Zm-7.014,9.791c-.572.137-.616.2-.62.847-.006.891-.016,1.783-.025,2.661a.8.8,0,0,0,.636-.767C252.577,20.261,252.56,19.348,252.56,18.432Zm11.513-.009c0,.917-.015,1.8.006,2.689.011.489.368.848.7.81-.025-.264-.066-.528-.071-.793-.01-.6,0-1.21,0-1.816C264.7,18.652,264.7,18.652,264.073,18.423Zm-12.435.5c-.579.136-.617.19-.62.814,0,.814-.01,1.629-.016,2.445a.8.8,0,0,0,.623-.754C251.669,20.6,251.638,19.766,251.638,18.927ZM265.7,22.182c-.025-.314-.062-.6-.069-.894-.012-.5,0-1,0-1.506,0-.639-.043-.7-.63-.828,0,.8-.018,1.6.006,2.391A.819.819,0,0,0,265.7,22.182Zm-9.047-8.116c-.532.036-.575.085-.41.391Z" stroke="#fff" stroke-miterlimit="10" stroke-width="1"/>
    <path id="Trazado_82" data-name="Trazado 82" d="M253.158,17.658l-.31.045V14.61a1,1,0,0,0,1.277.064,1.3,1.3,0,0,0,.535-.826c-.4.231-.628.9-1.224.669.2-.36.384-.7.571-1.038-.02-.037-.039-.074-.06-.111-.367.425-.629,1.222-1.277.687l1.058-1.474c-.033-.037-.067-.073-.1-.11-.1.13-.2.26-.3.388a4.171,4.171,0,0,1-.474.579c-.242.209-.479.117-.666-.221.627-.3.85-1.038,1.293-1.543-.034-.045-.066-.089-.1-.133a4.874,4.874,0,0,0-.4.408c-.171.214-.3.476-.487.673a.4.4,0,0,1-.66.028c.341-.548.673-1.079,1-1.61l-.091-.1a4.978,4.978,0,0,0-.443.5c-.214.308-.394.652-.607.961-.178.259-.4.443-.713.346-.007-.026-.025-.057-.018-.07.285-.533.564-1.068.856-1.594a3.759,3.759,0,0,1,1.367-1.523.847.847,0,0,1,1.17.23,1.436,1.436,0,0,1,.276,1.518,1.184,1.184,0,0,0,.106,1.314,1,1,0,0,0,1.223.374,3.558,3.558,0,0,0,.432-.274c.183-.115.368-.226.577-.353a1.044,1.044,0,0,1-.016-.459c.047-.109.253-.123.4-.185-.33-.3-.087-.7-.109-1.062-.005-.08.016-.207-.02-.235-.274-.219-.558-.42-.88-.658-.022-.463.249-.618.69-.581.619.053.7.587.952,1.038.159.28.546.38.832.557a4.618,4.618,0,0,1,.711.5c-.527.336-.991.083-1.5-.161-.1.417-.192.827-.3,1.3-.253-.279-.371-.079-.5.116-.091.144-.2.276-.294.414-.041.059-.12.134-.111.182.105.524-.157.5-.475.532-.183.02-.339.284-.523.4-.256.169-.527.309-.794.458-.047.026-.135.014-.149.05-.2.5-.612.41-.954.483-.459.1-.48.1-.365.758.493-.14.995-.242,1.474-.429a8.634,8.634,0,0,0,1.162-.623c.1-.059.171-.185.265-.265a1.088,1.088,0,0,1,.318-.226c.234-.083.47-.133.514-.494.006-.05.108-.084.166-.123a5.76,5.76,0,0,0,.5-.346.358.358,0,0,0,.105-.259,2.461,2.461,0,0,1,.138-1.481c.38.043.754.083,1.128.13a.247.247,0,0,1,.141.08c.243.272.48.548.762.871-.165.118-.34.246-.517.374,0,.028.009.056.015.086.109-.029.216-.062.325-.084a1.734,1.734,0,0,1,.577-.094,1.164,1.164,0,0,0,1.286-1.009,1.961,1.961,0,0,0-.116-.781,1.344,1.344,0,0,1,.266-1.471.837.837,0,0,1,1.166-.226,4.7,4.7,0,0,1,1.874,2.149c.182.342.406.653.605.969-.342.2-.463.117-1.317-.894a4.184,4.184,0,0,1,.248.462,1.773,1.773,0,0,1,.057.366c-.116.005-.274.071-.344.006-.31-.284-.591-.609-.887-.913-.106-.109-.228-.2-.384-.333a3.252,3.252,0,0,0,1.4,1.66c-.181.488-.387.558-.942.319-.03.034-.058.068-.087.1.141.171.284.342.437.526a.438.438,0,0,1-.689.086,6.772,6.772,0,0,0-.663-.709c.1.186.184.378.289.556s.222.344.333.514c-.265.277-.46.288-.71,0-.183-.209-.333-.457-.529-.73.071,1,.8,1.408,1.875,1.052v3.062l-.384-.065c.075.2.12.34.175.472s.168.263.171.4c.017.7,0,1.393.011,2.091,0,.266.045.53.067.8-.4.039-.631-.29-.812-1.1a6.582,6.582,0,0,0-.171,1.012c-.022,1.148,0,2.3-.01,3.447,0,.26.04.638-.262.645-.336.007-.28-.394-.284-.66-.013-.624-.005-1.249-.005-1.874l-.109-.022a4.514,4.514,0,0,0-.131.555c-.023.216,0,.44-.01.658-.034.5-.227.618-.592.39-.5.65-1.007,1.289-1.492,1.951a.579.579,0,0,0,.005.414,3.486,3.486,0,0,0,1.387,1.894c-.356.354-.686.68-1.047,1.038-.293-.932-.57-1.808-.845-2.683l-.148.044a2.377,2.377,0,0,0,.045.4c.189.673.371,1.349.592,2.008.11.328.044.5-.213.628a3.735,3.735,0,0,0-.365.244c-.256-.881-.352-1.789-.63-2.624-.06.017-.121.033-.181.051.171,1.081.341,2.163.518,3.283h-1.6c.08-.5.158-1,.239-1.5.078-.48.163-.96.23-1.443a1.284,1.284,0,0,0-.058-.364,1.315,1.315,0,0,0-.179.322c-.158.671-.3,1.347-.448,2.02-.016.072-.046.14-.083.253-.229-.16-.441-.306-.659-.457.213-.961.586-1.846.758-2.793l-.183-.068c-.272.871-.544,1.742-.837,2.677-.354-.348-.682-.672-1.05-1.033a3.586,3.586,0,0,0,1.394-1.857.535.535,0,0,0-.1-.633c-.456-.553-.884-1.142-1.327-1.723-.437.194-.57.08-.593-.518a1.451,1.451,0,0,0-.262-1.123c0,.383,0,.683,0,.982,0,.413.01.827-.024,1.237-.01.124-.159.232-.244.349a1.358,1.358,0,0,1-.243-.346,1.66,1.66,0,0,1-.04-.5c0-1.032.01-2.066-.009-3.1a4.555,4.555,0,0,0-.184-1.06c-.14.506-.295.958-.744,1.017.011-.931.021-1.852.033-2.773,0-.226-.04-.463.2-.595C253.143,18.023,253.131,17.821,253.158,17.658Zm5.18-4.241c-.063.032-.088.036-.1.054a7.972,7.972,0,0,1-4.8,2.686c-.19.035-.236.142-.216.338.041.409.083.819.119,1.228a13.992,13.992,0,0,0,4.74,9.633c.167.148.274.162.451.008,3.12-2.7,4.656-6.388,4.862-10.9a.389.389,0,0,0-.194-.3A8.625,8.625,0,0,1,258.338,13.417Zm1.119-.069.018.137c-.3.22-.316.4-.016.6a.76.76,0,0,0,.48.086c.165-.015.286-.074.239.228a.418.418,0,0,0,.147.324,6.909,6.909,0,0,0,2.739,1.063c.16-.556.112-.658-.333-.8a7.675,7.675,0,0,1-.873-.32,7.178,7.178,0,0,1-2.565-1.884.549.549,0,0,0-.757.083c-.176.328.1.438.244.609.021.026.057.033.087.05,0-.03,0-.059-.007-.089Z" stroke="#fff" stroke-miterlimit="10" stroke-width="1"/>
    <path id="Trazado_83" data-name="Trazado 83" d="M265,13.014c.581.183.629.254.629.869,0,1.3-.006,2.6,0,3.9,0,.352.046.7.071,1.05a.819.819,0,0,1-.7-.841C264.989,16.337,265,14.679,265,13.014Z" stroke="#fff" stroke-miterlimit="10" stroke-width="1"/>
    <path id="Trazado_84" data-name="Trazado 84" d="M250.96,18.864c.021-.336.053-.65.055-.965.006-1.3,0-2.6,0-3.9,0-.692,0-.692.6-.966a2.545,2.545,0,0,1,.034.289c0,1.508.005,3.016,0,4.524C251.65,18.44,251.417,18.769,250.96,18.864Z" stroke="#fff" stroke-miterlimit="10" stroke-width="1"/>
    <path id="Trazado_85" data-name="Trazado 85" d="M252.551,21.977a1.839,1.839,0,0,1,.026.219c0,1.278.008,2.556,0,3.832-.006.6-.224.9-.7,1.032.145-1.4.041-2.812.067-4.22C251.952,22.171,251.954,22.15,252.551,21.977Z" stroke="#fff" stroke-miterlimit="10" stroke-width="1"/>
    <path id="Trazado_86" data-name="Trazado 86" d="M264.772,27.063a.821.821,0,0,1-.686-.779c-.021-1.429-.009-2.857-.009-4.291.586.151.623.2.623.849,0,1.11,0,2.218,0,3.328C264.707,26.46,264.747,26.749,264.772,27.063Z" stroke="#fff" stroke-miterlimit="10" stroke-width="1"/>
    <path id="Trazado_87" data-name="Trazado 87" d="M263.157,21.5c.617.179.617.179.617.856,0,1.109.006,2.218,0,3.326,0,.293.049.708-.327.707-.36,0-.3-.4-.3-.683-.009-1.289,0-2.579,0-3.868C263.136,21.726,263.149,21.615,263.157,21.5Z" stroke="#fff" stroke-miterlimit="10" stroke-width="1"/>
    <path id="Trazado_88" data-name="Trazado 88" d="M265,22.468c.628.254.628.254.628.953,0,.964-.006,1.93,0,2.9,0,.376.042.753.066,1.123a.811.811,0,0,1-.688-.812C264.987,25.254,265,23.881,265,22.468Z" stroke="#fff" stroke-miterlimit="10" stroke-width="1"/>
    <path id="Trazado_89" data-name="Trazado 89" d="M251.654,22.491v.575c0,1.122,0,2.244,0,3.367,0,.577-.235.893-.651,1,.006-1.093.013-2.2.018-3.314,0-.27,0-.542,0-.812C251.018,22.682,251.058,22.629,251.654,22.491Z" stroke="#fff" stroke-miterlimit="10" stroke-width="1"/>
    <path id="Trazado_90" data-name="Trazado 90" d="M264.675,13.479c.068,1.624-.058,3.257.072,4.876a.747.747,0,0,1-.673-.776c-.021-1.071-.05-2.146.013-3.211.019-.324.329-.624.505-.935C264.62,13.45,264.647,13.465,264.675,13.479Z" stroke="#fff" stroke-miterlimit="10" stroke-width="1"/>
    <path id="Trazado_91" data-name="Trazado 91" d="M253.49,21.475c.008.159.017.285.017.411q0,1.9,0,3.79a.956.956,0,0,1-.03.38,1.76,1.76,0,0,1-.287.349,1.482,1.482,0,0,1-.277-.359,1.374,1.374,0,0,1-.029-.458q0-1.625,0-3.248C252.884,21.678,252.884,21.678,253.49,21.475Z" stroke="#fff" stroke-miterlimit="10" stroke-width="1"/>
    <path id="Trazado_92" data-name="Trazado 92" d="M251.884,18.388c.029-.336.076-.651.079-.966.009-1.173.005-2.345.005-3.519v-.5a1.861,1.861,0,0,1,.636,1.389c-.044.847-.006,1.7-.015,2.551C252.582,17.959,252.364,18.263,251.884,18.388Z" stroke="#fff" stroke-miterlimit="10" stroke-width="1"/>
    <path id="Trazado_93" data-name="Trazado 93" d="M259.574,8.641c.051.4-.125.519-.343.548a4.462,4.462,0,0,1-.6.005l-.013.171.839.134c-.074.456-.29.5-1.046.252.078.092.142.221.236.27.166.088.355.12.529.194.069.029.123.107.185.161-.069.069-.131.184-.206.2a1.355,1.355,0,0,1-1.044-.661c-.2-.356-.292-.8-.638-1.044-.066-.046-.059-.243-.085-.37.1-.025.2-.087.286-.068.181.042.353.135.531.195A1.458,1.458,0,0,0,259.574,8.641Z" stroke="#fff" stroke-miterlimit="10" stroke-width="1"/>
    <path id="Trazado_94" data-name="Trazado 94" d="M252.56,18.432c0,.916.017,1.829-.009,2.74a.8.8,0,0,1-.636.767c.009-.877.019-1.769.025-2.662C251.944,18.634,251.988,18.568,252.56,18.432Z" stroke="#fff" stroke-miterlimit="10" stroke-width="1"/>
    <path id="Trazado_95" data-name="Trazado 95" d="M264.073,18.423c.628.228.628.228.628.892,0,.6-.007,1.21,0,1.815.005.265.047.529.071.794-.328.037-.686-.322-.7-.811C264.058,20.227,264.073,19.34,264.073,18.423Z" stroke="#fff" stroke-miterlimit="10" stroke-width="1"/>
    <path id="Trazado_96" data-name="Trazado 96" d="M251.638,18.927c0,.839.031,1.675-.013,2.5a.8.8,0,0,1-.623.754q.009-1.224.016-2.445C251.021,19.117,251.059,19.062,251.638,18.927Z" stroke="#fff" stroke-miterlimit="10" stroke-width="1"/>
    <path id="Trazado_97" data-name="Trazado 97" d="M265.7,22.182a.818.818,0,0,1-.695-.838c-.023-.8-.006-1.591-.006-2.391.588.133.631.19.631.828,0,.5-.008,1,0,1.506C265.639,21.579,265.676,21.868,265.7,22.182Z" stroke="#fff" stroke-miterlimit="10" stroke-width="1"/>
    <path id="Trazado_98" data-name="Trazado 98" d="M256.654,14.066l-.41.391C256.079,14.152,256.122,14.1,256.654,14.066Z" stroke="#fff" stroke-miterlimit="10" stroke-width="1"/>
    <path id="Trazado_99" data-name="Trazado 99" d="M258.338,13.417a8.625,8.625,0,0,0,4.86,2.754.387.387,0,0,1,.194.3c-.206,4.508-1.742,8.193-4.862,10.9-.177.154-.285.14-.451-.007a13.988,13.988,0,0,1-4.74-9.634c-.036-.41-.078-.819-.12-1.228-.019-.2.025-.3.217-.338a7.97,7.97,0,0,0,4.8-2.686C258.25,13.453,258.275,13.449,258.338,13.417Zm2.549,2.274.011.011c-.2-.126-.329-.012-.361.2a.467.467,0,0,0,.125.373.314.314,0,0,0,.325-.112A.305.305,0,0,0,260.887,15.691Zm1.454,1.839c.079-.288-.056-.4-.3-.484a12.525,12.525,0,0,1-3.518-1.853.288.288,0,0,0-.412,0,11.871,11.871,0,0,1-3.109,1.71c-.739.28-.742.284-.655,1.218a11.143,11.143,0,0,0,3.727,7.764c.178.152.29.168.477.008C260.97,23.838,262.1,20.979,262.341,17.53ZM256.006,23.8c-.139.139-.274.273-.411.408.144.244.281.421.495.2S256.178,24,256.006,23.8Zm1.353-8.249a2.058,2.058,0,0,0,.247-.5c.015-.086-.092-.278-.16-.289a1.173,1.173,0,0,0-.427.1C257.137,15.1,257.218,15.267,257.359,15.553Zm1.283-.479c.2.036.352.107.472.067a.409.409,0,0,0,.145-.335c-.022-.128-.146-.231-.248-.375C258.88,14.657,258.792,14.814,258.642,15.074Zm-.277-.4c.207-.155.4-.291.2-.586-.181-.268-.337-.092-.517.071C258.162,14.337,258.26,14.5,258.365,14.671Zm2.826,8.192c-.149.208-.237.331-.345.48l.468.338.083-.069C261.338,23.4,261.279,23.184,261.191,22.863Zm-.993,1.565.365.374c-.194-.394.115-.312.257-.37C260.373,24.138,260.373,24.138,260.2,24.428ZM256.393,16l.019-.006a1.107,1.107,0,0,0-.128-.388.27.27,0,0,0-.3-.032c-.276.236.048.4.1.6V15.9Zm6.1.845.454.1c-.034-.183-.071-.38-.126-.664C262.682,16.526,262.593,16.683,262.494,16.849Zm-2.7,8.892-.55-.323c.078.308.127.506.167.664C259.54,25.965,259.658,25.859,259.792,25.741Zm-3.576-.767c.114.142.212.266.324.408.061-.192.118-.381.2-.658ZM261.578,23c.087-.18.158-.325.243-.5h-.568C261.391,22.713,261.491,22.868,261.578,23ZM258.2,14.689c-.139-.1-.284-.215-.513-.389.053.3.086.493.115.662C257.938,14.867,258.06,14.784,258.2,14.689Zm-3.754,1.941-.4-.355c.05.259.082.422.126.648.03-.149.046-.227.062-.317l.374.293c-.054-.263-.091-.438-.128-.612a.384.384,0,0,0-.046.011C254.433,16.383,254.437,16.468,254.443,16.63Zm3.247,9.249-.035-.05a3.858,3.858,0,0,0-.18.531c-.007.038.174.192.214.168a2.4,2.4,0,0,0,.365-.338l-.035-.025-.433.224Q257.637,26.134,257.69,25.879Zm4.44-4.08c.039-.111.093-.268.146-.419h-.492c-.015.03-.029.061-.044.09C261.878,21.588,262.015,21.7,262.13,21.8Zm-.963,1.99-.562-.109c.134.242.222.4.291.528Zm-6.8-2.049.131.337c-.06-.355.016-.423.237-.225.011-.067.024-.149.047-.3.093.14.14.213.189.285l.031-.02c-.044-.106-.089-.212-.142-.337Zm.726.52c.029.054.074.131.116.209l.071-.072-.228-.265c-.037.1-.075.2-.112.3-.022.059-.043.119-.086.241l-.132-.327-.074.064.227.322C254.947,22.589,255.012,22.446,255.1,22.26Zm4.676-7.228-.3-.171c-.09.195-.166.359-.25.544.107.078.193.143.333.246l-.26-.393.336.033-.2-.259Zm-5.828,1.4-.06.02c-.031.17-.063.341-.094.512-.1-.132-.2-.265-.3-.4a1.671,1.671,0,0,0,.2.49c.019.029.212-.025.221-.069A4.093,4.093,0,0,0,253.945,16.433Zm1.725-.025c-.256-.146-.078-.255.037-.361l-.285-.052.223-.22-.016-.032-.28.143C255.464,16.08,255.38,16.4,255.67,16.408Zm-.424-.363-.049-.009c-.028.116-.056.232-.087.365-.1-.1-.168-.181-.24-.257l-.038.052.314.447.075-.031C255.23,16.423,255.237,16.233,255.246,16.045Zm6.8.737.124-.024c-.045-.212-.089-.423-.132-.635l-.094-.007c-.041.181-.084.362-.147.641l.2-.315C262.018,16.588,262.032,16.685,262.045,16.782Zm-3.58,9.436c-.125.062-.3.087-.331.181a.656.656,0,0,0,.057.45c.035.066.2.032.272.04l-.31-.335Zm-1.981-10.859.184-.163-.044-.058-.225.235c.088.058.175.118.265.173s.152.086.228.127c.012-.034.025-.068.037-.1C256.792,15.505,256.654,15.44,256.484,15.359Z" stroke="#fff" stroke-miterlimit="10" stroke-width="1"/>
    <path id="Trazado_100" data-name="Trazado 100" d="M259.457,13.348l-.6.084c0,.03.005.059.007.089a.318.318,0,0,1-.086-.05c-.14-.171-.42-.281-.245-.609a.548.548,0,0,1,.757-.083,7.187,7.187,0,0,0,2.565,1.884,8.115,8.115,0,0,0,.874.32c.444.143.493.245.332.8a6.876,6.876,0,0,1-2.739-1.063.423.423,0,0,1-.147-.324c.047-.3-.074-.242-.238-.228a.757.757,0,0,1-.481-.086c-.3-.2-.284-.378.017-.6C259.469,13.439,259.463,13.394,259.457,13.348Z" stroke="#fff" stroke-miterlimit="10" stroke-width="1"/>
    <path id="Trazado_101" data-name="Trazado 101" d="M262.341,17.53c-.239,3.449-1.371,6.308-3.783,8.364-.187.16-.3.144-.477-.008a11.14,11.14,0,0,1-3.728-7.764c-.088-.934-.084-.939.656-1.218a11.853,11.853,0,0,0,3.108-1.71.29.29,0,0,1,.413,0,12.524,12.524,0,0,0,3.518,1.853C262.286,17.13,262.42,17.242,262.341,17.53Zm-1.679-.4c-.49-.074-.941-.168-1.395-.2a1.973,1.973,0,0,0-.767.123.482.482,0,0,0-.212.362c-.015,1.481-.009,2.963-.006,4.445a1.04,1.04,0,0,0,.033.186c.509,0,1.007,0,1.506,0,.174,0,.349,0,.523-.01.243,0,.33-.135.325-.436-.016-1.08-.005-2.162-.005-3.243C260.662,17.953,260.662,17.545,260.662,17.135Zm-2.456,4.953c.009-.178.019-.3.019-.429,0-1.365-.01-2.73.009-4.1,0-.35-.12-.48-.374-.554a5.089,5.089,0,0,0-1.954.159c0,1.573-.005,3.1.011,4.635a.393.393,0,0,0,.264.272C256.842,22.1,257.505,22.088,258.206,22.088Zm-1.146.265c-.147,1.387-.23,2.629.981,3.312a.207.207,0,0,1,.051.047.246.246,0,0,0,.424.01c.305-.314.623-.607.933-.916.063-.064.15-.157.151-.238.012-.7.008-1.409.008-2.184A3.723,3.723,0,0,1,257.06,22.353Zm2.68,2.02a.783.783,0,0,0,.136-.088,2.489,2.489,0,0,0,.159-.194,11.718,11.718,0,0,0,2.145-6.545.415.415,0,0,0-.2-.3c-.671-.311-1.348-.6-2.024-.893a1.437,1.437,0,0,0-.184-.053c-.1.508-.056.581.334.6.153.007.307.005.46,0,.228-.005.336.1.334.392q-.009,2.38,0,4.762c0,.235-.073.32-.263.329-.3.014-.6.047-.9.072C259.74,23.1,259.74,23.708,259.74,24.373Zm-2.864-8.068c-.785.323-1.548.63-2.3.959a.375.375,0,0,0-.122.294c.035.487.079.976.148,1.458a10.769,10.769,0,0,0,1.962,5.025c.087.115.19.215.353.4V23.127c0-.66,0-.66-.539-.654-.076,0-.153-.011-.229-.01-.294.005-.417-.125-.411-.508.02-1.342.007-2.684.007-4.026,0-.931,0-.931.794-1.048C256.923,16.823,256.944,16.787,256.876,16.305Zm2.721.381a.582.582,0,0,0-.3-.738,4.778,4.778,0,0,1-.788-.547.282.282,0,0,0-.411.006,5.06,5.06,0,0,1-.788.544.539.539,0,0,0-.271.714c.41.092.781.178,1.152.256a.509.509,0,0,0,.19-.008C258.776,16.842,259.167,16.766,259.6,16.686Z" stroke="#fff" stroke-miterlimit="10" stroke-width="1"/>
    <path id="Trazado_102" data-name="Trazado 102" d="M256.006,23.8c.172.2.294.389.085.606s-.35.045-.5-.2Z" stroke="#fff" stroke-miterlimit="10" stroke-width="1"/>
    <path id="Trazado_103" data-name="Trazado 103" d="M257.359,15.553c-.141-.286-.222-.447-.339-.683a1.182,1.182,0,0,1,.427-.1c.068.011.174.2.161.289A2.18,2.18,0,0,1,257.359,15.553Z" stroke="#fff" stroke-miterlimit="10" stroke-width="1"/>
    <path id="Trazado_104" data-name="Trazado 104" d="M258.642,15.074c.15-.26.24-.417.369-.643.1.144.226.248.248.375a.409.409,0,0,1-.145.335C258.994,15.181,258.846,15.11,258.642,15.074Z" stroke="#fff" stroke-miterlimit="10" stroke-width="1"/>
    <path id="Trazado_105" data-name="Trazado 105" d="M258.365,14.671c-.1-.171-.2-.334-.315-.516.181-.163.335-.339.517-.071C258.767,14.38,258.572,14.516,258.365,14.671Z" stroke="#fff" stroke-miterlimit="10" stroke-width="1"/>
    <path id="Trazado_106" data-name="Trazado 106" d="M261.191,22.863c.088.321.147.536.206.749l-.083.069-.468-.338C260.954,23.194,261.042,23.071,261.191,22.863Z" stroke="#fff" stroke-miterlimit="10" stroke-width="1"/>
    <path id="Trazado_107" data-name="Trazado 107" d="M260.2,24.428c.175-.29.175-.29.622,0-.142.059-.451-.024-.257.37Z" stroke="#fff" stroke-miterlimit="10" stroke-width="1"/>
    <path id="Trazado_108" data-name="Trazado 108" d="M256.393,16l-.309-.1v.272c-.052-.2-.376-.362-.1-.6a.27.27,0,0,1,.3.032,1.128,1.128,0,0,1,.128.388Z" stroke="#fff" stroke-miterlimit="10" stroke-width="1"/>
    <path id="Trazado_109" data-name="Trazado 109" d="M262.494,16.849c.1-.166.188-.323.33-.564.053.283.09.481.125.664Z" stroke="#fff" stroke-miterlimit="10" stroke-width="1"/>
    <path id="Trazado_110" data-name="Trazado 110" d="M259.792,25.741l-.382.341c-.039-.158-.09-.356-.166-.664Z" stroke="#fff" stroke-miterlimit="10" stroke-width="1"/>
    <path id="Trazado_111" data-name="Trazado 111" d="M256.216,24.974l.529-.25c-.087.277-.144.465-.2.658C256.427,25.241,256.328,25.117,256.216,24.974Z" stroke="#fff" stroke-miterlimit="10" stroke-width="1"/>
    <path id="Trazado_112" data-name="Trazado 112" d="M261.578,23l-.325-.5h.568C261.736,22.678,261.665,22.823,261.578,23Z" stroke="#fff" stroke-miterlimit="10" stroke-width="1"/>
    <path id="Trazado_113" data-name="Trazado 113" d="M258.2,14.689l-.4.273c-.03-.169-.064-.359-.115-.662C257.913,14.474,258.06,14.585,258.2,14.689Z" stroke="#fff" stroke-miterlimit="10" stroke-width="1"/>
    <path id="Trazado_114" data-name="Trazado 114" d="M254.443,16.63c-.007-.162-.01-.247-.013-.331l.046-.011c.036.174.072.349.128.613l-.374-.294c-.018.09-.033.168-.062.318-.044-.227-.077-.39-.127-.649C254.209,16.424,254.308,16.51,254.443,16.63Z" stroke="#fff" stroke-miterlimit="10" stroke-width="1"/>
    <path id="Trazado_115" data-name="Trazado 115" d="M257.69,25.879l-.106.51.433-.224.036.025a2.364,2.364,0,0,1-.366.338c-.039.024-.221-.13-.213-.168a3.85,3.85,0,0,1,.179-.531A.542.542,0,0,1,257.69,25.879Z" stroke="#fff" stroke-miterlimit="10" stroke-width="1"/>
    <path id="Trazado_116" data-name="Trazado 116" d="M262.13,21.8l-.39-.328c.015-.03.029-.061.044-.09h.492Z" stroke="#fff" stroke-miterlimit="10" stroke-width="1"/>
    <path id="Trazado_117" data-name="Trazado 117" d="M261.167,23.789l-.271.419c-.069-.125-.157-.286-.291-.528Z" stroke="#fff" stroke-miterlimit="10" stroke-width="1"/>
    <path id="Trazado_118" data-name="Trazado 118" d="M260.887,15.691a.307.307,0,0,1,.1.471.313.313,0,0,1-.325.112.466.466,0,0,1-.125-.373c.034-.211.165-.325.362-.2-.031.007-.079,0-.091.022-.068.121-.125.249-.187.374l.213.1c.034-.137.072-.272.1-.41C260.937,15.762,260.9,15.724,260.887,15.691Z" stroke="#fff" stroke-miterlimit="10" stroke-width="1"/>
    <path id="Trazado_119" data-name="Trazado 119" d="M254.371,21.74l.492-.262c.053.125.1.231.141.337l-.031.02c-.047-.073-.1-.145-.188-.285-.024.153-.037.235-.047.3-.22-.2-.3-.13-.237.225C254.464,21.979,254.427,21.882,254.371,21.74Z" stroke="#fff" stroke-miterlimit="10" stroke-width="1"/>
    <path id="Trazado_120" data-name="Trazado 120" d="M255.1,22.26c-.085.185-.15.329-.216.471-.076-.106-.152-.214-.227-.321l.073-.065.133.328c.043-.123.063-.181.085-.241.037-.1.075-.2.112-.3.077.088.152.176.229.265l-.071.072C255.171,22.391,255.126,22.314,255.1,22.26Z" stroke="#fff" stroke-miterlimit="10" stroke-width="1"/>
    <path id="Trazado_121" data-name="Trazado 121" d="M259.773,15.032h-.339c.091.12.144.188.2.259l-.336-.033c.1.155.161.243.26.393-.142-.1-.227-.167-.333-.246l.25-.544Z" stroke="#fff" stroke-miterlimit="10" stroke-width="1"/>
    <path id="Trazado_122" data-name="Trazado 122" d="M253.945,16.433a3.932,3.932,0,0,1-.036.555c-.009.043-.2.1-.221.069a1.662,1.662,0,0,1-.2-.49l.3.4c.031-.171.064-.341.1-.513Z" stroke="#fff" stroke-miterlimit="10" stroke-width="1"/>
    <path id="Trazado_123" data-name="Trazado 123" d="M255.67,16.408c-.29-.008-.206-.328-.323-.521l.28-.143.016.033c-.059.057-.117.116-.222.219l.284.052C255.592,16.153,255.414,16.262,255.67,16.408Z" stroke="#fff" stroke-miterlimit="10" stroke-width="1"/>
    <path id="Trazado_124" data-name="Trazado 124" d="M255.246,16.045c-.009.188-.016.377-.025.567l-.075.031-.314-.447.038-.052.24.257c.033-.133.059-.249.087-.365Z" stroke="#fff" stroke-miterlimit="10" stroke-width="1"/>
    <path id="Trazado_125" data-name="Trazado 125" d="M262.045,16.782c-.013-.1-.028-.194-.049-.339-.063.1-.1.163-.2.315.065-.279.106-.46.147-.641l.094.007c.045.212.089.423.132.635C262.129,16.765,262.088,16.774,262.045,16.782Z" stroke="#fff" stroke-miterlimit="10" stroke-width="1"/>
    <path id="Trazado_126" data-name="Trazado 126" d="M258.465,26.218l-.312.335.31.335c-.069-.007-.237.027-.272-.04a.651.651,0,0,1-.057-.45C258.164,26.305,258.34,26.28,258.465,26.218Z" stroke="#fff" stroke-miterlimit="10" stroke-width="1"/>
    <path id="Trazado_127" data-name="Trazado 127" d="M256.484,15.359l.445.213c-.012.033-.025.067-.037.1-.076-.041-.153-.081-.228-.127s-.177-.115-.265-.173l.225-.235.044.058C256.605,15.252,256.543,15.308,256.484,15.359Z" stroke="#fff" stroke-miterlimit="10" stroke-width="1"/>
    <path id="Trazado_128" data-name="Trazado 128" d="M260.662,17.135v1.227c0,1.081-.01,2.163.006,3.243,0,.3-.083.431-.326.436-.173,0-.349.01-.522.01h-1.507a1.021,1.021,0,0,1-.032-.186c0-1.482-.008-2.964.006-4.445a.474.474,0,0,1,.212-.362,2,2,0,0,1,.767-.124C259.721,16.968,260.172,17.062,260.662,17.135Zm-1.855,2.677c-.014.314-.025.627-.039.941a.347.347,0,0,0,.156-.2c.027-.079.042-.163.071-.289.143.108.258.2.376.282.322.229.421.206.636-.165.12-.21.225-.431.334-.639a1.109,1.109,0,0,0-.256,0,1.037,1.037,0,0,0-.231.115l-.419.2c-.07-.17-.141-.339-.244-.584.184-.024.328-.043.477-.061l-.25-.266.459-.5L259.36,19l-.053-.1c.086-.146.18-.286.255-.44.066-.135.112-.284.166-.428l.118.171-.605.641c-.015-.033-.029-.065-.044-.1a3.136,3.136,0,0,1-.236.405c-.031.039-.132,0-.2,0,.025-.126.05-.254.08-.408l-.3.416.084.015a4.117,4.117,0,0,0,.074.407,1.158,1.158,0,0,0,.122.237Z" stroke="#fff" stroke-miterlimit="10" stroke-width="1"/>
    <path id="Trazado_129" data-name="Trazado 129" d="M258.206,22.088c-.7,0-1.364.011-2.025-.013a.389.389,0,0,1-.264-.272c-.016-1.531-.011-3.062-.011-4.635a5.07,5.07,0,0,1,1.954-.159c.254.074.378.2.374.553-.019,1.365-.008,2.73-.009,4.1C258.225,21.785,258.215,21.91,258.206,22.088Zm-.985-2.72-.7.439a3.617,3.617,0,0,1,1.121,1.689c.11-.112.223-.227.388-.393C257.571,21.03,257.279,20.309,257.221,19.368Zm-.594-1.556c-.138.286-.262.6-.43.873-.1.169-.225.309-.059.488s.3.42.573.3a.987.987,0,0,0,.183-1.316C256.8,18.049,256.715,17.928,256.627,17.812Z" stroke="#fff" stroke-miterlimit="10" stroke-width="1"/>
    <path id="Trazado_130" data-name="Trazado 130" d="M257.06,22.353a3.715,3.715,0,0,0,2.545.031c0,.776,0,1.48-.008,2.184,0,.081-.087.174-.151.238-.308.309-.628.6-.932.916a.247.247,0,0,1-.425-.01.249.249,0,0,0-.051-.047C256.83,24.982,256.913,23.74,257.06,22.353Z" stroke="#fff" stroke-miterlimit="10" stroke-width="1"/>
    <path id="Trazado_131" data-name="Trazado 131" d="M259.74,24.373V22.449c.3-.025.6-.059.9-.072.191-.009.264-.094.262-.329q-.01-2.382,0-4.763c0-.288-.106-.4-.335-.391-.153,0-.306,0-.459,0-.39-.016-.433-.09-.334-.6a1.488,1.488,0,0,1,.184.054c.676.293,1.353.582,2.023.893a.416.416,0,0,1,.2.3,11.711,11.711,0,0,1-2.146,6.545c-.051.068-.1.133-.159.194A.814.814,0,0,1,259.74,24.373Z" stroke="#fff" stroke-miterlimit="10" stroke-width="1"/>
    <path id="Trazado_132" data-name="Trazado 132" d="M256.876,16.305c.069.482.047.518-.342.575-.793.117-.793.117-.793,1.048,0,1.342.013,2.684-.008,4.026-.006.383.119.513.411.508.077,0,.153.011.23.01.539-.005.539-.007.539.654v1.311c-.162-.181-.265-.281-.354-.4a10.767,10.767,0,0,1-1.961-5.025c-.071-.482-.114-.971-.149-1.458a.382.382,0,0,1,.122-.294C255.328,16.937,256.09,16.629,256.876,16.305Z" stroke="#fff" stroke-miterlimit="10" stroke-width="1"/>
    <path id="Trazado_133" data-name="Trazado 133" d="M259.6,16.686c-.43.08-.821.156-1.215.227a.529.529,0,0,1-.19.008c-.371-.078-.742-.163-1.151-.256a.541.541,0,0,1,.271-.714,5.129,5.129,0,0,0,.788-.544.282.282,0,0,1,.411-.006,4.746,4.746,0,0,0,.787.547A.581.581,0,0,1,259.6,16.686Z" stroke="#fff" stroke-miterlimit="10" stroke-width="1"/>
    <path id="Trazado_134" data-name="Trazado 134" d="M260.887,15.691c.017.033.049.071.045.1-.028.138-.065.273-.1.41l-.214-.1c.062-.125.121-.253.187-.374.012-.022.061-.015.092-.022Z" stroke="#fff" stroke-miterlimit="10" stroke-width="1"/>
    <path id="Trazado_135" data-name="Trazado 135" d="M258.817,19.82a1.228,1.228,0,0,1-.122-.236c-.037-.131-.05-.271-.074-.407l-.084-.015.305-.417c-.031.155-.055.282-.08.409.07,0,.171.043.2,0a3.205,3.205,0,0,0,.236-.405c.014.033.029.065.044.1l.605-.641-.118-.171c-.054.143-.1.293-.166.428-.075.153-.169.294-.255.44l.053.1c.183-.128.365-.257.517-.362-.128.14-.283.309-.459.5.122.13.187.2.25.266l-.477.062c.1.245.174.414.244.584a3.635,3.635,0,0,0-.312-.436c-.069-.071-.187-.078-.283-.112C258.833,19.613,258.824,19.717,258.817,19.82Z" stroke="#fff" stroke-miterlimit="10" stroke-width="1"/>
    <path id="Trazado_136" data-name="Trazado 136" d="M258.817,19.82c.007-.1.016-.207.023-.31.1.035.214.041.283.112a3.173,3.173,0,0,1,.312.436l.419-.2.194.039a3.248,3.248,0,0,1-.25.557.274.274,0,0,1-.3.057c-.245-.211-.463-.464-.689-.7Z" stroke="#fff" stroke-miterlimit="10" stroke-width="1"/>
    <path id="Trazado_137" data-name="Trazado 137" d="M258.807,19.812c.228.236.446.489.689.7a.276.276,0,0,0,.3-.057,3.175,3.175,0,0,0,.25-.557l-.194-.039a1.016,1.016,0,0,1,.231-.115,1.109,1.109,0,0,1,.256,0c-.109.208-.214.429-.334.639-.215.372-.314.394-.636.165-.118-.084-.233-.174-.376-.282-.031.126-.044.21-.071.289a.347.347,0,0,1-.156.2C258.78,20.439,258.793,20.126,258.807,19.812Z" stroke="#fff" stroke-miterlimit="10" stroke-width="1"/>
    <path id="Trazado_138" data-name="Trazado 138" d="M257.221,19.368c.06.942.35,1.662.812,1.733l-.388.394a3.643,3.643,0,0,0-1.121-1.689Z" stroke="#fff" stroke-miterlimit="10" stroke-width="1"/>
    <path id="Trazado_139" data-name="Trazado 139" d="M256.627,17.812c.088.116.172.238.265.347a.985.985,0,0,1-.182,1.316c-.274.116-.414-.132-.573-.3s-.044-.318.059-.488A9.685,9.685,0,0,0,256.627,17.812Zm.063.538a1.848,1.848,0,0,1-.29.277c-.157.09-.287.21-.163.406.1.156.26.335.406.349s.336-.161.276-.42A5.015,5.015,0,0,0,256.69,18.35Z" stroke="#fff" stroke-miterlimit="10" stroke-width="1"/>
    <path id="Trazado_140" data-name="Trazado 140" d="M256.69,18.35a4.9,4.9,0,0,1,.229.611c.06.259-.115.436-.276.42-.144-.014-.306-.193-.406-.349-.125-.2,0-.316.163-.407A1.815,1.815,0,0,0,256.69,18.35Z" stroke="#fff" stroke-miterlimit="10" stroke-width="1"/>
  </g>
</svg>
